<?xml version="1.0" encoding="utf-8"?>
<!-- Generator: Adobe Illustrator 25.4.1, SVG Export Plug-In . SVG Version: 6.00 Build 0)  -->
<svg version="1.1" id="Lag_1" xmlns="http://www.w3.org/2000/svg" xmlns:xlink="http://www.w3.org/1999/xlink" x="0px" y="0px"
	 viewBox="0 0 720 224" style="enable-background:new 0 0 720 224;" xml:space="preserve">
<style type="text/css">
	.st0{fill:#86B1E0;stroke:#000000;stroke-width:0.5;stroke-linecap:round;stroke-linejoin:round;}
	.st1{fill:none;stroke:#000000;stroke-width:0.5;stroke-linecap:round;stroke-linejoin:round;}
	.st2{fill:#86B1E0;stroke:#000000;stroke-width:0.5;stroke-miterlimit:10;}
	.st3{fill:#C8C8C8;stroke:#000000;stroke-width:0.5;stroke-miterlimit:10;}
	.st4{fill:#E3AAAA;stroke:#000000;stroke-width:0.5;stroke-miterlimit:10;}
	.st5{fill:#AABDC6;stroke:#000000;stroke-width:0.5;stroke-miterlimit:10;}
	.st6{fill:#809BA8;stroke:#000000;stroke-width:0.5;stroke-miterlimit:10;}
	.st7{fill:#BAD9AA;stroke:#000000;stroke-width:0.5;stroke-miterlimit:10;}
	.st8{fill:#B29980;stroke:#000000;stroke-width:0.5;stroke-miterlimit:10;}
	.st9{fill:#BDBDBD;stroke:#000000;stroke-width:0.5;stroke-miterlimit:10;}
	.st10{fill:#87C8CE;stroke:#000000;stroke-width:0.5;stroke-miterlimit:10;}
	.st11{fill:#D9E6EC;stroke:#000000;stroke-width:0.5;stroke-miterlimit:10;}
	.st12{fill:#E0D68F;stroke:#000000;stroke-width:0.5;stroke-miterlimit:10;}
	.st13{fill:#C48080;stroke:#000000;stroke-width:0.5;stroke-miterlimit:10;}
	.st14{fill:#D0BDAA;stroke:#000000;stroke-width:0.5;stroke-miterlimit:10;}
</style>
<line class="st0" x1="16" y1="24" x2="64" y2="42"/>
<line class="st0" x1="16" y1="72" x2="44" y2="120"/>
<line class="st0" x1="88" y1="102" x2="16" y2="72"/>
<line class="st0" x1="114" y1="42" x2="142" y2="88"/>
<line class="st0" x1="88" y1="102" x2="142" y2="88"/>
<line class="st0" x1="64" y1="42" x2="88" y2="102"/>
<line class="st1" x1="48" y1="190" x2="106" y2="204"/>
<line class="st1" x1="111" y1="160" x2="106" y2="204"/>
<line class="st1" x1="164" y1="168" x2="112" y2="160"/>
<line class="st1" x1="220" y1="192" x2="106" y2="204"/>
<line class="st0" x1="164" y1="168" x2="142" y2="88"/>
<line class="st1" x1="220" y1="28" x2="232" y2="70"/>
<line class="st1" x1="198" y1="108" x2="232" y2="70"/>
<line class="st1" x1="264" y1="104" x2="198" y2="108"/>
<line class="st0" x1="220" y1="28" x2="114" y2="42"/>
<line class="st1" x1="288" y1="160" x2="336" y2="160"/>
<line class="st1" x1="316" y1="210" x2="336" y2="162"/>
<line class="st1" x1="392" y1="146" x2="336" y2="164"/>
<line class="st1" x1="392" y1="192" x2="392" y2="146"/>
<line class="st1" x1="440" y1="176" x2="392" y2="146"/>
<line class="st1" x1="264" y1="104" x2="288" y2="160"/>
<line class="st1" x1="336" y1="162" x2="324" y2="80"/>
<line class="st1" x1="344" y1="28" x2="324" y2="80"/>
<line class="st1" x1="408" y1="24" x2="380" y2="86"/>
<line class="st1" x1="424" y1="62" x2="380" y2="86"/>
<line class="st1" x1="324" y1="80" x2="380" y2="86"/>
<line class="st1" x1="408" y1="24" x2="496" y2="20"/>
<line class="st1" x1="559.7" y1="16" x2="496" y2="20"/>
<line class="st1" x1="544" y1="52" x2="559.7" y2="16"/>
<line class="st1" x1="624" y1="28" x2="544" y2="52"/>
<line class="st1" x1="536" y1="100" x2="544" y2="52"/>
<line class="st1" x1="464" y1="112" x2="536" y2="100"/>
<line class="st1" x1="484" y1="68" x2="536" y2="100"/>
<line class="st1" x1="464" y1="112" x2="440" y2="176"/>
<line class="st1" x1="504" y1="156" x2="564" y2="164"/>
<line class="st1" x1="512" y1="208" x2="550" y2="200"/>
<line class="st1" x1="564" y1="164" x2="512" y2="208"/>
<line class="st1" x1="636" y1="162" x2="606" y2="206"/>
<line class="st1" x1="564" y1="164" x2="606" y2="206"/>
<line class="st1" x1="536" y1="100" x2="564" y2="164"/>
<line class="st1" x1="624" y1="28" x2="612" y2="94"/>
<line class="st1" x1="666" y1="72" x2="612" y2="94"/>
<line class="st1" x1="704" y1="94" x2="666" y2="72"/>
<line class="st1" x1="662" y1="112" x2="704" y2="94"/>
<line class="st1" x1="696" y1="150" x2="662" y2="112"/>
<line class="st1" x1="684" y1="192" x2="696" y2="150"/>
<line class="st1" x1="636" y1="162" x2="696" y2="150"/>
<rect x="0.5" y="0.5" class="st2" width="31" height="47"/>
<path class="st2" d="M31,1v46H1V1H31 M32,0H0v48h32V0z"/>
<rect x="40.5" y="24.5" class="st2" width="47" height="35"/>
<path class="st2" d="M87,25v34H41V25H87 M88,24H40v36h48V24z"/>
<rect x="0.5" y="56.5" class="st2" width="31" height="31"/>
<path class="st2" d="M31,57v30H1V57H31 M32,56H0v32h32V56z"/>
<rect x="96.5" y="24.5" class="st2" width="35" height="35"/>
<path class="st2" d="M131,25v34H97V25H131 M132,24H96v36h36V24z"/>
<rect x="120.5" y="68.5" class="st2" width="43" height="39"/>
<path class="st2" d="M163,69v38h-42V69H163 M164,68h-44v40h44V68z"/>
<rect x="72.5" y="80.5" class="st2" width="31" height="43"/>
<path class="st2" d="M103,81v42H73V81H103 M104,80H72v44h32V80z"/>
<rect x="24.5" y="104.5" class="st2" width="39" height="31"/>
<path class="st2" d="M63,105v30H25v-30H63 M64,104H24v32h40V104z"/>
<rect x="172.5" y="88.5" class="st3" width="51" height="39"/>
<path class="st4" d="M223,89v38h-50V89H223 M224,88h-52v40h52V88z"/>
<rect x="208.5" y="60.5" class="st3" width="47" height="19"/>
<path class="st4" d="M255,61v18h-46V61H255 M256,60h-48v20h48V60z"/>
<rect x="248.5" y="88.5" class="st3" width="31" height="31"/>
<path class="st4" d="M279,89v30h-30V89H279 M280,88h-32v32h32V88z"/>
<rect x="96.5" y="144.5" class="st5" width="31" height="31"/>
<path class="st6" d="M127,145v30H97v-30H127 M128,144H96v32h32V144z"/>
<rect x="136.5" y="144.5" class="st5" width="55" height="47"/>
<path class="st6" d="M191,145v46h-54v-46H191 M192,144h-56v48h56V144z"/>
<rect x="32.5" y="176.5" class="st5" width="31" height="27"/>
<path class="st6" d="M63,177v26H33v-26H63 M64,176H32v28h32V176z"/>
<rect x="84.5" y="184.5" class="st5" width="43" height="39"/>
<path class="st6" d="M127,185v38H85v-38H127 M128,184H84v40h44V184z"/>
<rect x="200.5" y="160.5" class="st5" width="39" height="63"/>
<path class="st6" d="M239,161v62h-38v-62H239 M240,160h-40v64h40V160z"/>
<rect x="296.5" y="64.5" class="st7" width="55" height="31"/>
<path class="st8" d="M351,65v30h-54V65H351 M352,64h-56v32h56V64z"/>
<rect x="320.5" y="0.5" class="st7" width="47" height="55"/>
<path class="st8" d="M367,1v54h-46V1H367 M368,0h-48v56h48V0z"/>
<rect x="360.5" y="64.5" class="st7" width="39" height="43"/>
<path class="st8" d="M399,65v42h-38V65H399 M400,64h-40v44h40V64z"/>
<rect x="384.5" y="8.5" class="st7" width="47" height="31"/>
<path class="st8" d="M431,9v30h-46V9H431 M432,8h-48v32h48V8z"/>
<rect x="408.5" y="48.5" class="st7" width="31" height="27"/>
<path class="st7" d="M439,49v26h-30V49H439 M440,48h-32v28h32V48z"/>
<rect x="272.5" y="144.5" class="st3" width="31" height="31"/>
<path class="st9" d="M303,145v30h-30v-30H303 M304,144h-32v32h32V144z"/>
<rect x="312.5" y="132.5" class="st10" width="47" height="59"/>
<path class="st9" d="M359,133v58h-46v-58H359 M360,132h-48v60h48V132z"/>
<rect x="296.5" y="200.5" class="st10" width="39" height="19"/>
<path class="st9" d="M335,201v18h-38v-18H335 M336,200h-40v20h40V200z"/>
<rect x="368.5" y="176.5" class="st10" width="47" height="31"/>
<path class="st9" d="M415,177v30h-46v-30H415 M416,176h-48v32h48V176z"/>
<rect x="372.5" y="124.5" class="st10" width="39" height="43"/>
<path class="st9" d="M411,125v42h-38v-42H411 M412,124h-40v44h40V124z"/>
<rect x="424.5" y="160.5" class="st10" width="31" height="31"/>
<path class="st9" d="M455,161v30h-30v-30H455 M456,160h-32v32h32V160z"/>
<rect x="432.5" y="96.5" class="st11" width="63" height="31"/>
<path class="st5" d="M495,97v30h-62V97H495 M496,96h-64v32h64V96z"/>
<rect x="464.5" y="48.5" class="st11" width="39" height="39"/>
<path class="st5" d="M503,49v38h-38V49H503 M504,48h-40v40h40V48z"/>
<rect x="512.5" y="72.5" class="st11" width="47" height="55"/>
<path class="st5" d="M559,73v54h-46V73H559 M560,72h-48v56h48V72z"/>
<rect x="480.5" y="8.5" class="st11" width="31" height="23"/>
<path class="st5" d="M511,9v22h-30V9H511 M512,8h-32v24h32V8z"/>
<rect x="516.5" y="40.5" class="st11" width="55" height="23"/>
<path class="st5" d="M571,41v22h-54V41H571 M572,40h-56v24h56V40z"/>
<rect x="543.8" y="0.5" class="st11" width="31.7" height="31"/>
<path class="st5" d="M575,1v30h-30.7V1H575 M576,0h-32.7v32H576V0z"/>
<rect x="608.5" y="16.5" class="st11" width="31" height="23"/>
<path class="st5" d="M639,17v22h-30V17H639 M640,16h-32v24h32V16z"/>
<rect x="480.5" y="136.5" class="st12" width="47" height="39"/>
<path class="st13" d="M527,137v38h-46v-38H527 M528,136h-48v40h48V136z"/>
<rect x="536.5" y="144.5" class="st12" width="55" height="39"/>
<path class="st13" d="M591,145v38h-54v-38H591 M592,144h-56v40h56V144z"/>
<rect x="496.5" y="192.5" class="st12" width="31" height="31"/>
<path class="st13" d="M527,193v30h-30v-30H527 M528,192h-32v32h32V192z"/>
<rect x="536.5" y="192.5" class="st12" width="27" height="15"/>
<path class="st13" d="M563,193v14h-26v-14H563 M564,192h-28v16h28V192z"/>
<rect x="576.5" y="192.5" class="st12" width="59" height="27"/>
<path class="st13" d="M635,193v26h-58v-26H635 M636,192h-60v28h60V192z"/>
<rect x="616.5" y="140.5" class="st12" width="39" height="43"/>
<path class="st13" d="M655,141v42h-38v-42H655 M656,140h-40v44h40V140z"/>
<rect x="592.5" y="76.5" class="st3" width="39" height="35"/>
<path class="st14" d="M631,77v34h-38V77H631 M632,76h-40v36h40V76z"/>
<rect x="640.5" y="96.5" class="st3" width="43" height="31"/>
<path class="st14" d="M683,97v30h-42V97H683 M684,96h-44v32h44V96z"/>
<rect x="672.5" y="132.5" class="st3" width="47" height="35"/>
<path class="st14" d="M719,133v34h-46v-34H719 M720,132h-48v36h48V132z"/>
<rect x="692.5" y="80.5" class="st3" width="23" height="27"/>
<path class="st14" d="M715,81v26h-22V81H715 M716,80h-24v28h24V80z"/>
<rect x="664.5" y="176.5" class="st3" width="39" height="31"/>
<path class="st14" d="M703,177v30h-38v-30H703 M704,176h-40v32h40V176z"/>
<rect x="648.5" y="56.5" class="st3" width="35" height="31"/>
<path class="st14" d="M683,57v30h-34V57H683 M684,56h-36v32h36V56z"/>
<rect x="196.5" y="8.5" class="st3" width="47" height="39"/>
<path class="st4" d="M243,9v38h-46V9H243 M244,8h-48v40h48V8z"/>
</svg>
