<?xml version="1.0" encoding="UTF-8" standalone="no"?>
<!-- Generator: Adobe Illustrator 25.4.1, SVG Export Plug-In . SVG Version: 6.00 Build 0)  -->

<svg
   xmlns:dc="http://purl.org/dc/elements/1.1/"
   xmlns:cc="http://creativecommons.org/ns#"
   xmlns:rdf="http://www.w3.org/1999/02/22-rdf-syntax-ns#"
   xmlns:svg="http://www.w3.org/2000/svg"
   xmlns="http://www.w3.org/2000/svg"
   xmlns:sodipodi="http://sodipodi.sourceforge.net/DTD/sodipodi-0.dtd"
   xmlns:inkscape="http://www.inkscape.org/namespaces/inkscape"
   version="1.1"
   id="Lag_1"
   x="0px"
   y="0px"
   viewBox="0 0 280 256"
   style="enable-background:new 0 0 280 256;"
   xml:space="preserve"
   inkscape:version="0.48.4 r9939"
   width="110mm"
   height="110mm"
   sodipodi:docname="G:\KTD\Semantik\FODS Initiativ 8.1\4.1 Regler for begrebs- og datamodellering\- Ressource - Vejledning\KL-KOMBIT-DIGST Fælles modelleringsvejledning\illustrationer\kap2 - 9 -omfang-kernemodel.svg"><metadata
   id="metadata10371"><rdf:RDF><cc:Work
       rdf:about=""><dc:format>image/svg+xml</dc:format><dc:type
         rdf:resource="http://purl.org/dc/dcmitype/StillImage" /><dc:title></dc:title></cc:Work></rdf:RDF></metadata><defs
   id="defs10369" /><sodipodi:namedview
   pagecolor="#ffffff"
   bordercolor="#666666"
   borderopacity="1"
   objecttolerance="10"
   gridtolerance="10"
   guidetolerance="10"
   inkscape:pageopacity="0"
   inkscape:pageshadow="2"
   inkscape:window-width="6401"
   inkscape:window-height="480"
   id="namedview10367"
   showgrid="false"
   inkscape:zoom="0.921875"
   inkscape:cx="113.62548"
   inkscape:cy="306.31721"
   inkscape:window-x="0"
   inkscape:window-y="0"
   inkscape:window-maximized="0"
   inkscape:current-layer="Lag_1" />
<style
   type="text/css"
   id="style10227">
	.st0{fill:#E1DA93;stroke:#101217;stroke-linecap:round;stroke-linejoin:round;}
	.st1{fill:#F7F1AB;stroke:#101217;stroke-linecap:round;stroke-linejoin:round;}
	.st2{fill:#D0C77B;stroke:#101217;stroke-linecap:round;stroke-linejoin:round;}
	.st3{fill:#FFFFFF;stroke:#101217;stroke-linecap:round;stroke-linejoin:round;}
	.st4{fill:#6D97CA;stroke:#101217;stroke-linecap:round;stroke-linejoin:round;}
	.st5{fill:#9FC8EC;stroke:#101217;stroke-linecap:round;stroke-linejoin:round;}
	.st6{fill:#86AFDE;stroke:#101217;stroke-linecap:round;stroke-linejoin:round;}
	.st7{fill:#B9D9AC;stroke:#101217;stroke-linecap:round;stroke-linejoin:round;}
	.st8{fill:#FDEAEE;stroke:#101217;stroke-linecap:round;stroke-linejoin:round;}
	.st9{fill:#D1E5C0;stroke:#101217;stroke-linecap:round;stroke-linejoin:round;}
	.st10{fill:#A3C293;stroke:#101217;stroke-linecap:round;stroke-linejoin:round;}
	.st11{fill:#CCCFD1;stroke:#101217;stroke-linecap:round;stroke-linejoin:round;}
	.st12{fill:#B8BABC;stroke:#101217;stroke-linecap:round;stroke-linejoin:round;}
	.st13{fill:#E0E4E6;stroke:#101217;stroke-linecap:round;stroke-linejoin:round;}
	.st14{fill:#F3FAFF;stroke:#101217;stroke-linecap:round;stroke-linejoin:round;}
	.st15{fill:#E7F5FD;stroke:#101217;stroke-linecap:round;stroke-linejoin:round;}
</style>
<polygon
   class="st0"
   points="156,45.5 156,15.5 182,30.5 182,60.5 "
   id="polygon10229"
   transform="matrix(0.42472669,0,0,0.42472669,2.1694915,3.2542373)"
   style="fill:#e1da93;stroke:#101217;stroke-linecap:round;stroke-linejoin:round" />
<polygon
   class="st1"
   points="182,30.5 208,15.5 208,45.5 182,60.5 "
   id="polygon10231"
   transform="matrix(0.42472669,0,0,0.42472669,2.1694915,3.2542373)"
   style="fill:#f7f1ab;stroke:#101217;stroke-linecap:round;stroke-linejoin:round" />
<polygon
   class="st1"
   points="182.6,0.5 209.1,15.8 182.6,31.2 156,15.8 "
   id="polygon10233"
   transform="matrix(0.42472669,0,0,0.42472669,2.1694915,3.2542373)"
   style="fill:#f7f1ab;stroke:#101217;stroke-linecap:round;stroke-linejoin:round" />
<polygon
   class="st0"
   points="181.5,60.5 181.5,30.5 207.5,45.5 207.5,75.5 "
   id="polygon10235"
   transform="matrix(0.42472669,0,0,0.42472669,2.1694915,3.2542373)"
   style="fill:#e1da93;stroke:#101217;stroke-linecap:round;stroke-linejoin:round" />
<polygon
   class="st1"
   points="208.5,45.5 234.4,30.5 234.4,60.5 208.5,75.5 "
   id="polygon10237"
   transform="matrix(0.42472669,0,0,0.42472669,2.1694915,3.2542373)"
   style="fill:#f7f1ab;stroke:#101217;stroke-linecap:round;stroke-linejoin:round" />
<polygon
   class="st1"
   points="208.6,15.8 235.1,31.2 208.6,46.5 182.1,31.2 "
   id="polygon10239"
   transform="matrix(0.42472669,0,0,0.42472669,2.1694915,3.2542373)"
   style="fill:#f7f1ab;stroke:#101217;stroke-linecap:round;stroke-linejoin:round" />
<polygon
   class="st1"
   points="208.5,75.5 208.5,45.5 234.4,60.5 234.4,90.5 "
   id="polygon10241"
   transform="matrix(0.42472669,0,0,0.42472669,2.1694915,3.2542373)"
   style="fill:#f7f1ab;stroke:#101217;stroke-linecap:round;stroke-linejoin:round" />
<polygon
   class="st2"
   points="234.4,60.5 260.4,45.5 260.4,75.5 234.4,90.5 "
   id="polygon10243"
   transform="matrix(0.42472669,0,0,0.42472669,2.1694915,3.2542373)"
   style="fill:#d0c77b;stroke:#101217;stroke-linecap:round;stroke-linejoin:round" />
<polygon
   class="st1"
   points="234.4,30.5 260.4,45.5 234.4,60.5 208.5,45.5 "
   id="polygon10245"
   transform="matrix(0.42472669,0,0,0.42472669,2.1694915,3.2542373)"
   style="fill:#f7f1ab;stroke:#101217;stroke-linecap:round;stroke-linejoin:round" />
<polygon
   class="st0"
   points="182.5,90.5 182.5,60.5 208.5,75.5 208.5,105.5 "
   id="polygon10247"
   transform="matrix(0.42472669,0,0,0.42472669,2.1694915,3.2542373)"
   style="fill:#e1da93;stroke:#101217;stroke-linecap:round;stroke-linejoin:round" />
<polygon
   class="st2"
   points="208.5,75.5 234.4,60.5 234.4,90.5 208.5,105.5 "
   id="polygon10249"
   transform="matrix(0.42472669,0,0,0.42472669,2.1694915,3.2542373)"
   style="fill:#d0c77b;stroke:#101217;stroke-linecap:round;stroke-linejoin:round" />
<polygon
   class="st1"
   points="208.5,45.5 234.4,60.5 208.5,75.5 182.5,60.5 "
   id="polygon10251"
   transform="matrix(0.42472669,0,0,0.42472669,2.1694915,3.2542373)"
   style="fill:#f7f1ab;stroke:#101217;stroke-linecap:round;stroke-linejoin:round" />
<polygon
   class="st3"
   points="100.5,105.5 100.5,75.5 126.4,90.5 126.4,120.5 "
   id="polygon10253"
   transform="matrix(0.42472669,0,0,0.42472669,2.1694915,3.2542373)"
   style="fill:#ffffff;stroke:#101217;stroke-linecap:round;stroke-linejoin:round" />
<polygon
   class="st4"
   points="126.4,90.5 152.4,75.5 152.4,105.5 126.4,120.5 "
   id="polygon10255"
   transform="matrix(0.42472669,0,0,0.42472669,2.1694915,3.2542373)"
   style="fill:#6d97ca;stroke:#101217;stroke-linecap:round;stroke-linejoin:round" />
<polygon
   class="st5"
   points="126.4,60.5 152.4,75.5 126.4,90.5 100.5,75.5 "
   id="polygon10257"
   transform="matrix(0.42472669,0,0,0.42472669,2.1694915,3.2542373)"
   style="fill:#9fc8ec;stroke:#101217;stroke-linecap:round;stroke-linejoin:round" />
<polygon
   class="st6"
   points="48.5,105.5 48.5,75.5 74.5,90.5 74.5,120.5 "
   id="polygon10259"
   transform="matrix(0.42472669,0,0,0.42472669,2.1694915,3.2542373)"
   style="fill:#86afde;stroke:#101217;stroke-linecap:round;stroke-linejoin:round" />
<polygon
   class="st3"
   points="74.5,90.5 100.5,75.5 100.5,105.5 74.5,120.5 "
   id="polygon10261"
   transform="matrix(0.42472669,0,0,0.42472669,2.1694915,3.2542373)"
   style="fill:#ffffff;stroke:#101217;stroke-linecap:round;stroke-linejoin:round" />
<polygon
   class="st5"
   points="74.5,60.5 100.5,75.5 74.5,90.5 48.5,75.5 "
   id="polygon10263"
   transform="matrix(0.42472669,0,0,0.42472669,2.1694915,3.2542373)"
   style="fill:#9fc8ec;stroke:#101217;stroke-linecap:round;stroke-linejoin:round" />
<polygon
   class="st6"
   points="74.5,120.5 74.5,90.5 100.5,105.5 100.5,135.5 "
   id="polygon10265"
   transform="matrix(0.42472669,0,0,0.42472669,2.1694915,3.2542373)"
   style="fill:#86afde;stroke:#101217;stroke-linecap:round;stroke-linejoin:round" />
<polygon
   class="st3"
   points="100.5,105.5 126.4,90.5 126.4,120.5 100.5,135.5 "
   id="polygon10267"
   transform="matrix(0.42472669,0,0,0.42472669,2.1694915,3.2542373)"
   style="fill:#ffffff;stroke:#101217;stroke-linecap:round;stroke-linejoin:round" />
<polygon
   class="st5"
   points="100.5,75.5 126.4,90.5 100.5,105.5 74.5,90.5 "
   id="polygon10269"
   transform="matrix(0.42472669,0,0,0.42472669,2.1694915,3.2542373)"
   style="fill:#9fc8ec;stroke:#101217;stroke-linecap:round;stroke-linejoin:round" />
<polygon
   class="st6"
   points="100.5,135.5 100.5,105.5 126.4,120.5 126.4,150.5 "
   id="polygon10271"
   transform="matrix(0.42472669,0,0,0.42472669,2.1694915,3.2542373)"
   style="fill:#86afde;stroke:#101217;stroke-linecap:round;stroke-linejoin:round" />
<polygon
   class="st4"
   points="126.4,120.5 152.4,105.5 152.4,135.5 126.4,150.5 "
   id="polygon10273"
   transform="matrix(0.42472669,0,0,0.42472669,2.1694915,3.2542373)"
   style="fill:#6d97ca;stroke:#101217;stroke-linecap:round;stroke-linejoin:round" />
<polygon
   class="st5"
   points="126.4,90.5 152.4,105.5 126.4,120.5 100.5,105.5 "
   id="polygon10275"
   transform="matrix(0.42472669,0,0,0.42472669,2.1694915,3.2542373)"
   style="fill:#9fc8ec;stroke:#101217;stroke-linecap:round;stroke-linejoin:round" />
<polygon
   class="st7"
   points="201.6,125.8 201.6,95.8 227.5,110.8 227.5,140.8 "
   id="polygon10277"
   transform="matrix(0.42472669,0,0,0.42472669,2.1694915,3.2542373)"
   style="fill:#b9d9ac;stroke:#101217;stroke-linecap:round;stroke-linejoin:round" />
<polygon
   class="st8"
   points="227.5,110.8 253.5,95.8 253.5,125.8 227.5,140.8 "
   id="polygon10279"
   transform="matrix(0.42472669,0,0,0.42472669,2.1694915,3.2542373)"
   style="fill:#fdeaee;stroke:#101217;stroke-linecap:round;stroke-linejoin:round" />
<polygon
   class="st9"
   points="227.5,80.8 253.5,95.8 227.5,110.8 201.6,95.8 "
   id="polygon10281"
   transform="matrix(0.42472669,0,0,0.42472669,2.1694915,3.2542373)"
   style="fill:#d1e5c0;stroke:#101217;stroke-linecap:round;stroke-linejoin:round" />
<polygon
   class="st7"
   points="227.5,140.8 227.5,110.8 253.5,125.8 253.5,155.8 "
   id="polygon10283"
   transform="matrix(0.42472669,0,0,0.42472669,2.1694915,3.2542373)"
   style="fill:#b9d9ac;stroke:#101217;stroke-linecap:round;stroke-linejoin:round" />
<polygon
   class="st10"
   points="253.5,125.8 279.5,110.8 279.5,140.8 253.5,155.8 "
   id="polygon10285"
   transform="matrix(0.42472669,0,0,0.42472669,2.1694915,3.2542373)"
   style="fill:#a3c293;stroke:#101217;stroke-linecap:round;stroke-linejoin:round" />
<polygon
   class="st9"
   points="253.5,95.8 279.5,110.8 253.5,125.8 227.5,110.8 "
   id="polygon10287"
   transform="matrix(0.42472669,0,0,0.42472669,2.1694915,3.2542373)"
   style="fill:#d1e5c0;stroke:#101217;stroke-linecap:round;stroke-linejoin:round" />
<polygon
   class="st11"
   points="155.5,148.3 155.5,118.3 181.5,133.3 181.5,163.3 "
   id="polygon10289"
   transform="matrix(0.42472669,0,0,0.42472669,2.1694915,3.2542373)"
   style="fill:#cccfd1;stroke:#101217;stroke-linecap:round;stroke-linejoin:round" />
<polygon
   class="st12"
   points="181.5,133.3 207.5,118.3 207.5,148.3 181.5,163.3 "
   id="polygon10291"
   transform="matrix(0.42472669,0,0,0.42472669,2.1694915,3.2542373)"
   style="fill:#b8babc;stroke:#101217;stroke-linecap:round;stroke-linejoin:round" />
<polygon
   class="st13"
   points="181.5,103.3 207.5,118.3 181.5,133.3 155.5,118.3 "
   id="polygon10293"
   transform="matrix(0.42472669,0,0,0.42472669,2.1694915,3.2542373)"
   style="fill:#e0e4e6;stroke:#101217;stroke-linecap:round;stroke-linejoin:round" />
<polygon
   class="st14"
   points="223.5,175.6 223.5,145.6 249.5,160.6 249.5,190.6 "
   id="polygon10295"
   transform="matrix(0.42472669,0,0,0.42472669,2.1694915,3.2542373)"
   style="fill:#f3faff;stroke:#101217;stroke-linecap:round;stroke-linejoin:round" />
<polygon
   class="st4"
   points="249.5,160.6 275.4,145.6 275.4,175.6 249.5,190.6 "
   id="polygon10297"
   transform="matrix(0.42472669,0,0,0.42472669,2.1694915,3.2542373)"
   style="fill:#6d97ca;stroke:#101217;stroke-linecap:round;stroke-linejoin:round" />
<polygon
   class="st5"
   points="249.5,130.6 275.4,145.6 249.5,160.6 223.5,145.6 "
   id="polygon10299"
   transform="matrix(0.42472669,0,0,0.42472669,2.1694915,3.2542373)"
   style="fill:#9fc8ec;stroke:#101217;stroke-linecap:round;stroke-linejoin:round" />
<polygon
   class="st6"
   points="197.5,190.6 197.5,160.6 223.5,175.6 223.5,205.6 "
   id="polygon10301"
   transform="matrix(0.42472669,0,0,0.42472669,2.1694915,3.2542373)"
   style="fill:#86afde;stroke:#101217;stroke-linecap:round;stroke-linejoin:round" />
<polygon
   class="st15"
   points="223.5,175.6 249.5,160.6 249.5,190.6 223.5,205.6 "
   id="polygon10303"
   transform="matrix(0.42472669,0,0,0.42472669,2.1694915,3.2542373)"
   style="fill:#e7f5fd;stroke:#101217;stroke-linecap:round;stroke-linejoin:round" />
<polygon
   class="st5"
   points="223.5,145.6 249.5,160.6 223.5,175.6 197.5,160.6 "
   id="polygon10305"
   transform="matrix(0.42472669,0,0,0.42472669,2.1694915,3.2542373)"
   style="fill:#9fc8ec;stroke:#101217;stroke-linecap:round;stroke-linejoin:round" />
<polygon
   class="st6"
   points="223.1,205.3 223.1,175.3 249.1,190.3 249.1,220.3 "
   id="polygon10307"
   transform="matrix(0.42472669,0,0,0.42472669,2.1694915,3.2542373)"
   style="fill:#86afde;stroke:#101217;stroke-linecap:round;stroke-linejoin:round" />
<polygon
   class="st4"
   points="249.1,190.3 275.1,175.3 275.1,205.3 249.1,220.3 "
   id="polygon10309"
   transform="matrix(0.42472669,0,0,0.42472669,2.1694915,3.2542373)"
   style="fill:#6d97ca;stroke:#101217;stroke-linecap:round;stroke-linejoin:round" />
<polygon
   class="st5"
   points="249.4,160.6 275.1,175.5 249.4,190.3 223.6,175.5 "
   id="polygon10311"
   transform="matrix(0.42472669,0,0,0.42472669,2.1694915,3.2542373)"
   style="fill:#9fc8ec;stroke:#101217;stroke-linecap:round;stroke-linejoin:round" />
<polygon
   class="st0"
   points="13.5,164 13.5,134 39.5,149 39.5,179 "
   id="polygon10313"
   transform="matrix(0.42472669,0,0,0.42472669,2.1694915,3.2542373)"
   style="fill:#e1da93;stroke:#101217;stroke-linecap:round;stroke-linejoin:round" />
<polygon
   class="st2"
   points="39.5,149 65.5,134 65.5,164 39.5,179 "
   id="polygon10315"
   transform="matrix(0.42472669,0,0,0.42472669,2.1694915,3.2542373)"
   style="fill:#d0c77b;stroke:#101217;stroke-linecap:round;stroke-linejoin:round" />
<polygon
   class="st1"
   points="39.5,119 65.5,134 39.5,149 13.5,134 "
   id="polygon10317"
   transform="matrix(0.42472669,0,0,0.42472669,2.1694915,3.2542373)"
   style="fill:#f7f1ab;stroke:#101217;stroke-linecap:round;stroke-linejoin:round" />
<polygon
   class="st3"
   points="52.5,210.5 52.5,180.5 78.4,195.5 78.4,225.5 "
   id="polygon10319"
   transform="matrix(0.42472669,0,0,0.42472669,2.1694915,3.2542373)"
   style="fill:#ffffff;stroke:#101217;stroke-linecap:round;stroke-linejoin:round" />
<polygon
   class="st12"
   points="78.4,195.5 104.4,180.5 104.4,210.5 78.4,225.5 "
   id="polygon10321"
   transform="matrix(0.42472669,0,0,0.42472669,2.1694915,3.2542373)"
   style="fill:#b8babc;stroke:#101217;stroke-linecap:round;stroke-linejoin:round" />
<polygon
   class="st11"
   points="0.5,210.5 0.5,180.5 26.5,195.5 26.5,225.5 "
   id="polygon10323"
   transform="matrix(0.42472669,0,0,0.42472669,2.1694915,3.2542373)"
   style="fill:#cccfd1;stroke:#101217;stroke-linecap:round;stroke-linejoin:round" />
<polygon
   class="st3"
   points="26.5,195.5 52.5,180.5 52.5,210.5 26.5,225.5 "
   id="polygon10325"
   transform="matrix(0.42472669,0,0,0.42472669,2.1694915,3.2542373)"
   style="fill:#ffffff;stroke:#101217;stroke-linecap:round;stroke-linejoin:round" />
<polygon
   class="st13"
   points="26.5,165.5 52.5,180.5 26.5,195.5 0.5,180.5 "
   id="polygon10327"
   transform="matrix(0.42472669,0,0,0.42472669,2.1694915,3.2542373)"
   style="fill:#e0e4e6;stroke:#101217;stroke-linecap:round;stroke-linejoin:round" />
<polygon
   class="st11"
   points="26.5,225.5 26.5,195.5 52.5,210.5 52.5,240.5 "
   id="polygon10329"
   transform="matrix(0.42472669,0,0,0.42472669,2.1694915,3.2542373)"
   style="fill:#cccfd1;stroke:#101217;stroke-linecap:round;stroke-linejoin:round" />
<polygon
   class="st3"
   points="52.5,210.5 78.4,195.5 78.4,225.5 52.5,240.5 "
   id="polygon10331"
   transform="matrix(0.42472669,0,0,0.42472669,2.1694915,3.2542373)"
   style="fill:#ffffff;stroke:#101217;stroke-linecap:round;stroke-linejoin:round" />
<polygon
   class="st13"
   points="52.5,180.5 78.4,195.5 52.5,210.5 26.5,195.5 "
   id="polygon10333"
   transform="matrix(0.42472669,0,0,0.42472669,2.1694915,3.2542373)"
   style="fill:#e0e4e6;stroke:#101217;stroke-linecap:round;stroke-linejoin:round" />
<polygon
   class="st11"
   points="52.5,240.5 52.5,210.5 78.4,225.5 78.4,255.5 "
   id="polygon10335"
   transform="matrix(0.42472669,0,0,0.42472669,2.1694915,3.2542373)"
   style="fill:#cccfd1;stroke:#101217;stroke-linecap:round;stroke-linejoin:round" />
<polygon
   class="st12"
   points="78.4,225.5 104.4,210.5 104.4,240.5 78.4,255.5 "
   id="polygon10337"
   transform="matrix(0.42472669,0,0,0.42472669,2.1694915,3.2542373)"
   style="fill:#b8babc;stroke:#101217;stroke-linecap:round;stroke-linejoin:round" />
<polygon
   class="st7"
   points="123.5,195.5 123.5,165.5 149.5,180.5 149.5,210.5 "
   id="polygon10339"
   transform="matrix(0.42472669,0,0,0.42472669,2.1694915,3.2542373)"
   style="fill:#b9d9ac;stroke:#101217;stroke-linecap:round;stroke-linejoin:round" />
<polygon
   class="st8"
   points="149.5,180.5 175.5,165.5 175.5,195.5 149.5,210.5 "
   id="polygon10341"
   transform="matrix(0.42472669,0,0,0.42472669,2.1694915,3.2542373)"
   style="fill:#fdeaee;stroke:#101217;stroke-linecap:round;stroke-linejoin:round" />
<polygon
   class="st9"
   points="149.5,150.5 175.5,165.5 149.5,180.5 123.5,165.5 "
   id="polygon10343"
   transform="matrix(0.42472669,0,0,0.42472669,2.1694915,3.2542373)"
   style="fill:#d1e5c0;stroke:#101217;stroke-linecap:round;stroke-linejoin:round" />
<polygon
   class="st7"
   points="149.5,210.5 149.5,180.5 175.5,195.5 175.5,225.5 "
   id="polygon10345"
   transform="matrix(0.42472669,0,0,0.42472669,2.1694915,3.2542373)"
   style="fill:#b9d9ac;stroke:#101217;stroke-linecap:round;stroke-linejoin:round" />
<polygon
   class="st8"
   points="175.5,195.5 201.4,180.5 201.4,210.5 175.5,225.5 "
   id="polygon10347"
   transform="matrix(0.42472669,0,0,0.42472669,2.1694915,3.2542373)"
   style="fill:#fdeaee;stroke:#101217;stroke-linecap:round;stroke-linejoin:round" />
<polygon
   class="st9"
   points="175.5,165.5 201.4,180.5 175.5,195.5 149.5,180.5 "
   id="polygon10349"
   transform="matrix(0.42472669,0,0,0.42472669,2.1694915,3.2542373)"
   style="fill:#d1e5c0;stroke:#101217;stroke-linecap:round;stroke-linejoin:round" />
<polygon
   class="st7"
   points="175.5,225.5 175.5,195.5 201.4,210.5 201.4,240.5 "
   id="polygon10351"
   transform="matrix(0.42472669,0,0,0.42472669,2.1694915,3.2542373)"
   style="fill:#b9d9ac;stroke:#101217;stroke-linecap:round;stroke-linejoin:round" />
<polygon
   class="st8"
   points="201.4,210.5 227.4,195.5 227.4,225.5 201.4,240.5 "
   id="polygon10353"
   transform="matrix(0.42472669,0,0,0.42472669,2.1694915,3.2542373)"
   style="fill:#fdeaee;stroke:#101217;stroke-linecap:round;stroke-linejoin:round" />
<polygon
   class="st9"
   points="201.4,180.5 227.4,195.5 201.4,210.5 175.5,195.5 "
   id="polygon10355"
   transform="matrix(0.42472669,0,0,0.42472669,2.1694915,3.2542373)"
   style="fill:#d1e5c0;stroke:#101217;stroke-linecap:round;stroke-linejoin:round" />
<polygon
   class="st7"
   points="201.4,240.5 201.4,210.5 227.4,225.5 227.4,255.5 "
   id="polygon10357"
   transform="matrix(0.42472669,0,0,0.42472669,2.1694915,3.2542373)"
   style="fill:#b9d9ac;stroke:#101217;stroke-linecap:round;stroke-linejoin:round" />
<polygon
   class="st10"
   points="227.4,225.5 253.4,210.5 253.4,240.5 227.4,255.5 "
   id="polygon10359"
   transform="matrix(0.42472669,0,0,0.42472669,2.1694915,3.2542373)"
   style="fill:#a3c293;stroke:#101217;stroke-linecap:round;stroke-linejoin:round" />
<polygon
   class="st9"
   points="227.4,195.5 253.4,210.5 227.4,225.5 201.4,210.5 "
   id="polygon10361"
   transform="matrix(0.42472669,0,0,0.42472669,2.1694915,3.2542373)"
   style="fill:#d1e5c0;stroke:#101217;stroke-linecap:round;stroke-linejoin:round" />
<polygon
   class="st13"
   points="78.4,195.5 104.4,210.5 78.4,225.5 52.4,210.5 "
   id="polygon10363"
   transform="matrix(0.42472669,0,0,0.42472669,2.1694915,3.2542373)"
   style="fill:#e0e4e6;stroke:#101217;stroke-linecap:round;stroke-linejoin:round" />
<polygon
   class="st13"
   points="78.4,165.5 104.4,180.5 78.4,195.5 52.4,180.5 "
   id="polygon10365"
   transform="matrix(0.42472669,0,0,0.42472669,2.1694915,3.2542373)"
   style="fill:#e0e4e6;stroke:#101217;stroke-linecap:round;stroke-linejoin:round" />
</svg>