<?xml version="1.0" encoding="utf-8"?>
<!-- Generator: Adobe Illustrator 25.4.1, SVG Export Plug-In . SVG Version: 6.00 Build 0)  -->
<svg version="1.1" id="Lag_1" xmlns="http://www.w3.org/2000/svg" xmlns:xlink="http://www.w3.org/1999/xlink" x="0px" y="0px"
	 viewBox="0 0 280 256" style="enable-background:new 0 0 280 256;" xml:space="preserve">
<style type="text/css">
	.st0{fill:#E1DA93;stroke:#101217;stroke-linecap:round;stroke-linejoin:round;}
	.st1{fill:#F7F1AB;stroke:#101217;stroke-linecap:round;stroke-linejoin:round;}
	.st2{fill:#D0C77B;stroke:#101217;stroke-linecap:round;stroke-linejoin:round;}
	.st3{fill:#FFFFFF;stroke:#101217;stroke-linecap:round;stroke-linejoin:round;}
	.st4{fill:#6D97CA;stroke:#101217;stroke-linecap:round;stroke-linejoin:round;}
	.st5{fill:#9FC8EC;stroke:#101217;stroke-linecap:round;stroke-linejoin:round;}
	.st6{fill:#86AFDE;stroke:#101217;stroke-linecap:round;stroke-linejoin:round;}
	.st7{fill:#B9D9AC;stroke:#101217;stroke-linecap:round;stroke-linejoin:round;}
	.st8{fill:#FDEAEE;stroke:#101217;stroke-linecap:round;stroke-linejoin:round;}
	.st9{fill:#D1E5C0;stroke:#101217;stroke-linecap:round;stroke-linejoin:round;}
	.st10{fill:#A3C293;stroke:#101217;stroke-linecap:round;stroke-linejoin:round;}
	.st11{fill:#CCCFD1;stroke:#101217;stroke-linecap:round;stroke-linejoin:round;}
	.st12{fill:#B8BABC;stroke:#101217;stroke-linecap:round;stroke-linejoin:round;}
	.st13{fill:#E0E4E6;stroke:#101217;stroke-linecap:round;stroke-linejoin:round;}
	.st14{fill:#F3FAFF;stroke:#101217;stroke-linecap:round;stroke-linejoin:round;}
	.st15{fill:#E7F5FD;stroke:#101217;stroke-linecap:round;stroke-linejoin:round;}
</style>
<polygon class="st0" points="182,30.5 182,60.5 156,45.5 156,15.5 "/>
<polygon class="st1" points="208,45.5 182,60.5 182,30.5 208,15.5 "/>
<polygon class="st1" points="182.6,31.2 156,15.8 182.6,0.5 209.1,15.8 "/>
<polygon class="st0" points="207.5,45.5 207.5,75.5 181.5,60.5 181.5,30.5 "/>
<polygon class="st1" points="234.4,60.5 208.5,75.5 208.5,45.5 234.4,30.5 "/>
<polygon class="st1" points="208.6,46.5 182.1,31.2 208.6,15.8 235.1,31.2 "/>
<polygon class="st1" points="234.4,60.5 234.4,90.5 208.5,75.5 208.5,45.5 "/>
<polygon class="st2" points="260.4,75.5 234.4,90.5 234.4,60.5 260.4,45.5 "/>
<polygon class="st1" points="234.4,60.5 208.5,45.5 234.4,30.5 260.4,45.5 "/>
<polygon class="st0" points="208.5,75.5 208.5,105.5 182.5,90.5 182.5,60.5 "/>
<polygon class="st2" points="234.4,90.5 208.5,105.5 208.5,75.5 234.4,60.5 "/>
<polygon class="st1" points="208.5,75.5 182.5,60.5 208.5,45.5 234.4,60.5 "/>
<polygon class="st3" points="126.4,90.5 126.4,120.5 100.5,105.5 100.5,75.5 "/>
<polygon class="st4" points="152.4,105.5 126.4,120.5 126.4,90.5 152.4,75.5 "/>
<polygon class="st5" points="126.4,90.5 100.5,75.5 126.4,60.5 152.4,75.5 "/>
<polygon class="st6" points="74.5,90.5 74.5,120.5 48.5,105.5 48.5,75.5 "/>
<polygon class="st3" points="100.5,105.5 74.5,120.5 74.5,90.5 100.5,75.5 "/>
<polygon class="st5" points="74.5,90.5 48.5,75.5 74.5,60.5 100.5,75.5 "/>
<polygon class="st6" points="100.5,105.5 100.5,135.5 74.5,120.5 74.5,90.5 "/>
<polygon class="st3" points="126.4,120.5 100.5,135.5 100.5,105.5 126.4,90.5 "/>
<polygon class="st5" points="100.5,105.5 74.5,90.5 100.5,75.5 126.4,90.5 "/>
<polygon class="st6" points="126.4,120.5 126.4,150.5 100.5,135.5 100.5,105.5 "/>
<polygon class="st4" points="152.4,135.5 126.4,150.5 126.4,120.5 152.4,105.5 "/>
<polygon class="st5" points="126.4,120.5 100.5,105.5 126.4,90.5 152.4,105.5 "/>
<polygon class="st7" points="227.5,110.8 227.5,140.8 201.6,125.8 201.6,95.8 "/>
<polygon class="st8" points="253.5,125.8 227.5,140.8 227.5,110.8 253.5,95.8 "/>
<polygon class="st9" points="227.5,110.8 201.6,95.8 227.5,80.8 253.5,95.8 "/>
<polygon class="st7" points="253.5,125.8 253.5,155.8 227.5,140.8 227.5,110.8 "/>
<polygon class="st10" points="279.5,140.8 253.5,155.8 253.5,125.8 279.5,110.8 "/>
<polygon class="st9" points="253.5,125.8 227.5,110.8 253.5,95.8 279.5,110.8 "/>
<polygon class="st11" points="181.5,133.3 181.5,163.3 155.5,148.3 155.5,118.3 "/>
<polygon class="st12" points="207.5,148.3 181.5,163.3 181.5,133.3 207.5,118.3 "/>
<polygon class="st13" points="181.5,133.3 155.5,118.3 181.5,103.3 207.5,118.3 "/>
<polygon class="st14" points="249.5,160.6 249.5,190.6 223.5,175.6 223.5,145.6 "/>
<polygon class="st4" points="275.4,175.6 249.5,190.6 249.5,160.6 275.4,145.6 "/>
<polygon class="st5" points="249.5,160.6 223.5,145.6 249.5,130.6 275.4,145.6 "/>
<polygon class="st6" points="223.5,175.6 223.5,205.6 197.5,190.6 197.5,160.6 "/>
<polygon class="st15" points="249.5,190.6 223.5,205.6 223.5,175.6 249.5,160.6 "/>
<polygon class="st5" points="223.5,175.6 197.5,160.6 223.5,145.6 249.5,160.6 "/>
<polygon class="st6" points="249.1,190.3 249.1,220.3 223.1,205.3 223.1,175.3 "/>
<polygon class="st4" points="275.1,205.3 249.1,220.3 249.1,190.3 275.1,175.3 "/>
<polygon class="st5" points="249.4,190.3 223.6,175.5 249.4,160.6 275.1,175.5 "/>
<polygon class="st0" points="39.5,149 39.5,179 13.5,164 13.5,134 "/>
<polygon class="st2" points="65.5,164 39.5,179 39.5,149 65.5,134 "/>
<polygon class="st1" points="39.5,149 13.5,134 39.5,119 65.5,134 "/>
<polygon class="st3" points="78.4,195.5 78.4,225.5 52.5,210.5 52.5,180.5 "/>
<polygon class="st12" points="104.4,210.5 78.4,225.5 78.4,195.5 104.4,180.5 "/>
<polygon class="st11" points="26.5,195.5 26.5,225.5 0.5,210.5 0.5,180.5 "/>
<polygon class="st3" points="52.5,210.5 26.5,225.5 26.5,195.5 52.5,180.5 "/>
<polygon class="st13" points="26.5,195.5 0.5,180.5 26.5,165.5 52.5,180.5 "/>
<polygon class="st11" points="52.5,210.5 52.5,240.5 26.5,225.5 26.5,195.5 "/>
<polygon class="st3" points="78.4,225.5 52.5,240.5 52.5,210.5 78.4,195.5 "/>
<polygon class="st13" points="52.5,210.5 26.5,195.5 52.5,180.5 78.4,195.5 "/>
<polygon class="st11" points="78.4,225.5 78.4,255.5 52.5,240.5 52.5,210.5 "/>
<polygon class="st12" points="104.4,240.5 78.4,255.5 78.4,225.5 104.4,210.5 "/>
<polygon class="st7" points="149.5,180.5 149.5,210.5 123.5,195.5 123.5,165.5 "/>
<polygon class="st8" points="175.5,195.5 149.5,210.5 149.5,180.5 175.5,165.5 "/>
<polygon class="st9" points="149.5,180.5 123.5,165.5 149.5,150.5 175.5,165.5 "/>
<polygon class="st7" points="175.5,195.5 175.5,225.5 149.5,210.5 149.5,180.5 "/>
<polygon class="st8" points="201.4,210.5 175.5,225.5 175.5,195.5 201.4,180.5 "/>
<polygon class="st9" points="175.5,195.5 149.5,180.5 175.5,165.5 201.4,180.5 "/>
<polygon class="st7" points="201.4,210.5 201.4,240.5 175.5,225.5 175.5,195.5 "/>
<polygon class="st8" points="227.4,225.5 201.4,240.5 201.4,210.5 227.4,195.5 "/>
<polygon class="st9" points="201.4,210.5 175.5,195.5 201.4,180.5 227.4,195.5 "/>
<polygon class="st7" points="227.4,225.5 227.4,255.5 201.4,240.5 201.4,210.5 "/>
<polygon class="st10" points="253.4,240.5 227.4,255.5 227.4,225.5 253.4,210.5 "/>
<polygon class="st9" points="227.4,225.5 201.4,210.5 227.4,195.5 253.4,210.5 "/>
<polygon class="st13" points="78.4,225.5 52.4,210.5 78.4,195.5 104.4,210.5 "/>
<polygon class="st13" points="78.4,195.5 52.4,180.5 78.4,165.5 104.4,180.5 "/>
</svg>
