<?xml version="1.0" encoding="utf-8"?>
<!-- Generator: Adobe Illustrator 25.4.1, SVG Export Plug-In . SVG Version: 6.00 Build 0)  -->
<svg version="1.1" id="Lag_1" xmlns="http://www.w3.org/2000/svg" xmlns:xlink="http://www.w3.org/1999/xlink" x="0px" y="0px"
	 viewBox="0 0 280 256" style="enable-background:new 0 0 280 256;" xml:space="preserve">
<style type="text/css">
	.st0{fill:#86AFDE;stroke:#030305;stroke-linecap:round;stroke-linejoin:round;}
	.st1{fill:#C3BB74;stroke:#030305;stroke-linecap:round;stroke-linejoin:round;}
	.st2{fill:#FDEAEE;stroke:#030305;stroke-linecap:round;stroke-linejoin:round;}
	.st3{fill:#9FC8EC;stroke:#030305;stroke-linecap:round;stroke-linejoin:round;}
	.st4{fill:#B9D9AC;stroke:#030305;stroke-linecap:round;stroke-linejoin:round;}
	.st5{fill:#D1E5C0;stroke:#030305;stroke-linecap:round;stroke-linejoin:round;}
	.st6{fill:#FEF7FB;stroke:#030305;stroke-linecap:round;stroke-linejoin:round;}
	.st7{fill:#AAADAF;stroke:#030305;stroke-linecap:round;stroke-linejoin:round;}
	.st8{fill:#DEE1E3;stroke:#030305;stroke-linecap:round;stroke-linejoin:round;}
	.st9{fill:#A0BE90;stroke:#030305;stroke-linecap:round;stroke-linejoin:round;}
	.st10{fill:#C4C7C9;stroke:#030305;stroke-linecap:round;stroke-linejoin:round;}
	.st11{fill:#6C96C8;stroke:#030305;stroke-linecap:round;stroke-linejoin:round;}
	.st12{fill:#DCD590;stroke:#030305;stroke-linecap:round;stroke-linejoin:round;}
	.st13{fill:#FCF7EE;stroke:#030305;stroke-linecap:round;stroke-linejoin:round;}
	.st14{fill:#F6F0AB;stroke:#030305;stroke-linecap:round;stroke-linejoin:round;}
	.st15{fill:#E7F5FD;stroke:#030305;stroke-linecap:round;stroke-linejoin:round;}
	.st16{fill:#F3FAFF;stroke:#030305;stroke-linecap:round;stroke-linejoin:round;}
</style>
<polygon class="st0" points="52.5,105.1 52.5,135.1 26.5,120.1 26.5,90.1 "/>
<polygon class="st1" points="261,76 235,91 235,61 261,46 "/>
<polygon class="st0" points="130.7,60.5 130.7,90.5 104.7,75.5 104.7,45.5 "/>
<polygon class="st2" points="156.7,75.5 130.7,90.5 130.7,60.5 156.7,45.5 "/>
<polygon class="st3" points="130.7,60.5 104.7,45.5 130.7,30.5 156.7,45.5 "/>
<polygon class="st4" points="130.4,90.3 130.4,120.3 104.5,105.3 104.5,75.3 "/>
<polygon class="st2" points="156.4,105.3 130.4,120.3 130.4,90.3 156.4,75.3 "/>
<polygon class="st5" points="130.4,90.3 104.5,75.3 130.4,60.3 156.4,75.3 "/>
<polygon class="st6" points="156.4,195.4 156.4,225.4 130.4,210.4 130.4,180.4 "/>
<polygon class="st7" points="182.4,210.4 156.4,225.4 156.4,195.4 182.4,180.4 "/>
<polygon class="st8" points="156.4,195.4 130.4,180.4 156.4,165.4 182.4,180.4 "/>
<polygon class="st4" points="130.4,210.3 130.4,240.3 104.4,225.3 104.4,195.3 "/>
<polygon class="st9" points="156.4,225.3 130.4,240.3 130.4,210.3 156.4,195.3 "/>
<polygon class="st5" points="130.4,210.3 104.4,195.3 130.4,180.3 156.4,195.3 "/>
<polygon class="st10" points="26.5,150.3 26.5,180.3 0.5,165.3 0.5,135.3 "/>
<polygon class="st2" points="52.5,165.3 26.5,180.3 26.5,150.3 52.5,135.3 "/>
<polygon class="st8" points="26.5,150.3 0.5,135.3 26.5,120.3 52.5,135.3 "/>
<polygon class="st0" points="208.7,195.6 208.7,225.6 182.7,210.6 182.7,180.6 "/>
<polygon class="st11" points="234.6,210.6 208.7,225.6 208.7,195.6 234.6,180.6 "/>
<polygon class="st3" points="208.7,195.6 182.7,180.6 208.7,165.6 234.6,180.6 "/>
<polygon class="st12" points="26.5,180.1 26.5,210.1 0.5,195.1 0.5,165.1 "/>
<polygon class="st13" points="52.5,195.1 26.5,210.1 26.5,180.1 52.5,165.1 "/>
<polygon class="st14" points="26.5,180.1 0.5,165.1 26.5,150.1 52.5,165.1 "/>
<polygon class="st8" points="52.5,135.3 26.5,120.3 52.5,105.3 78.4,120.3 "/>
<polygon class="st5" points="104.4,195.3 78.4,180.3 104.4,165.3 130.4,180.3 "/>
<polygon class="st5" points="234,150.6 208,135.6 234,120.6 259.9,135.6 "/>
<polygon class="st5" points="182.4,150.5 156.5,135.5 182.4,120.5 208.4,135.5 "/>
<polygon class="st3" points="182.4,30.5 156.5,15.5 182.4,0.5 208.4,15.5 "/>
<polygon class="st3" points="156.4,45.4 130.4,30.4 156.4,15.4 182.4,30.4 "/>
<polygon class="st14" points="234.5,60.8 208.5,45.7 234.5,30.7 260.6,45.7 "/>
<polygon class="st14" points="208.5,75.8 182.4,60.8 208.5,45.7 234.5,60.8 "/>
<polygon class="st14" points="182.4,90.5 156.5,75.5 182.4,60.5 208.4,75.5 "/>
<polygon class="st14" points="208.5,45.7 182.4,30.7 208.5,15.6 234.5,30.7 "/>
<polygon class="st14" points="104.4,135.3 78.4,120.3 104.4,105.3 130.4,120.3 "/>
<polygon class="st14" points="78.4,120.1 52.5,105.1 78.4,90.1 104.4,105.1 "/>
<polygon class="st14" points="156.4,165.4 130.4,150.4 156.4,135.4 182.4,150.4 "/>
<polygon class="st14" points="130.4,180.3 104.4,165.3 130.4,150.3 156.4,165.3 "/>
<polygon class="st14" points="78.4,150.1 52.5,135.1 78.4,120.1 104.4,135.1 "/>
<polygon class="st8" points="130.4,120.3 104.4,105.3 130.4,90.3 156.4,105.3 "/>
<polygon class="st8" points="156.4,135.4 130.4,120.4 156.4,105.4 182.4,120.4 "/>
<polygon class="st8" points="130.4,150.3 104.4,135.3 130.4,120.3 156.4,135.3 "/>
<polygon class="st8" points="104.4,165.3 78.4,150.3 104.4,135.3 130.4,150.3 "/>
<polygon class="st8" points="78.4,180.1 52.5,165.1 78.4,150.1 104.4,165.1 "/>
<polygon class="st14" points="52.5,165.5 26.5,150.5 52.5,135.5 78.4,150.5 "/>
<polygon class="st3" points="182.4,60.5 156.5,45.5 182.4,30.5 208.4,45.5 "/>
<polygon class="st3" points="156.4,105.4 130.4,90.4 156.4,75.4 182.4,90.4 "/>
<polygon class="st8" points="182.4,120.5 156.5,105.5 182.4,90.5 208.4,105.5 "/>
<polygon class="st3" points="156.4,75.4 130.4,60.4 156.4,45.4 182.4,60.4 "/>
<polygon class="st3" points="234.6,90.9 208.7,75.9 234.6,60.9 260.6,75.9 "/>
<polygon class="st3" points="208.7,105.9 182.7,90.9 208.7,75.9 234.6,90.9 "/>
<polygon class="st3" points="182.4,180.5 156.5,165.5 182.4,150.5 208.4,165.5 "/>
<polygon class="st3" points="208.1,165.6 182.1,150.6 208.1,135.6 234,150.6 "/>
<polygon class="st11" points="234,180.6 208,165.6 234,150.6 259.9,165.6 "/>
<polygon class="st0" points="52.5,195.3 52.5,225.3 26.5,210.3 26.5,180.3 "/>
<polygon class="st15" points="78.4,210.3 52.5,225.3 52.5,195.3 78.4,180.3 "/>
<polygon class="st3" points="52.5,195.3 26.5,180.3 52.5,165.3 78.4,180.3 "/>
<polygon class="st16" points="78.4,210.1 78.4,240.1 52.5,225.1 52.5,195.1 "/>
<polygon class="st11" points="104.4,225.1 78.4,240.1 78.4,210.1 104.4,195.1 "/>
<polygon class="st3" points="78.4,210.1 52.5,195.1 78.4,180.1 104.4,195.1 "/>
<polygon class="st0" points="52.5,225.3 52.5,255.3 26.5,240.3 26.5,210.3 "/>
<polygon class="st11" points="78.4,240.3 52.5,255.3 52.5,225.3 78.4,210.3 "/>
<polygon class="st3" points="52.5,225.3 26.5,210.3 52.5,195.3 78.4,210.3 "/>
<polygon class="st11" points="260.4,105.8 234.4,120.8 234.4,90.8 260.4,75.8 "/>
<polygon class="st11" points="234.4,121 208.5,136 208.5,106 234.4,91 "/>
<polygon class="st9" points="259.7,166 233.7,181 233.7,151 259.7,136 "/>
<polygon class="st3" points="52.5,105.1 26.5,90.1 52.5,75.1 78.4,90.1 "/>
<polygon class="st5" points="208.6,135.5 182.7,120.5 208.6,105.5 234.6,120.5 "/>
</svg>
