<svg id="Lag_1" data-name="Lag 1" xmlns="http://www.w3.org/2000/svg" viewBox="0 0 405.51 216.17"><defs><style>.cls-1,.cls-17{font-size:11.38px;}.cls-1,.cls-19,.cls-5,.cls-6,.cls-7{fill:#1d1d1b;}.cls-1{font-family:Arial-BoldMT, Arial;font-weight:700;}.cls-2{letter-spacing:-0.07em;}.cls-11,.cls-3{fill:#f0f0f0;}.cls-3{stroke:#010101;}.cls-11,.cls-12,.cls-13,.cls-14,.cls-15,.cls-20,.cls-3,.cls-4,.cls-8{stroke-miterlimit:10;}.cls-10,.cls-11,.cls-12,.cls-13,.cls-14,.cls-15,.cls-20,.cls-3,.cls-8,.cls-9{stroke-width:0.75px;}.cls-10,.cls-13,.cls-4{fill:none;}.cls-4{stroke:#1d1d1b;}.cls-6{font-size:9.58px;}.cls-18,.cls-19,.cls-6,.cls-7{font-family:Arial-ItalicMT, Arial;font-style:italic;}.cls-18,.cls-7{font-size:9.48px;}.cls-8{fill:#bad9aa;}.cls-10,.cls-11,.cls-12,.cls-13,.cls-14,.cls-15,.cls-20,.cls-8,.cls-9{stroke:#000;}.cls-12,.cls-20,.cls-9{fill:#fff;}.cls-10,.cls-13,.cls-20,.cls-9{stroke-linecap:round;}.cls-10,.cls-9{stroke-linejoin:round;}.cls-14{fill:#86b1df;}.cls-15{fill:#e0d68f;}.cls-16,.cls-17,.cls-18{isolation:isolate;}.cls-17,.cls-18{fill:#343434;}.cls-17{font-family:ArialMT, Arial;}.cls-19{font-size:10px;}</style></defs><text class="cls-1" transform="translate(162 87.95) scale(1.01 1)">Begreb</text><text class="cls-1" transform="translate(227.54 184.51) scale(1.01 1)">Instanser</text><text class="cls-1" transform="translate(104.28 183.28) scale(1.01 1)"><tspan class="cls-2">T</tspan><tspan x="6.1" y="0">ermer</tspan></text><path class="cls-3" d="M233.44,31.71c0-7.33-6.88-13.27-15.38-13.27a17.79,17.79,0,0,0-4.11.48,10.46,10.46,0,0,0,.27-2.38c0-8.38-9.68-15.16-21.63-15.16-10.25,0-18.83,5-21.06,11.7A16.6,16.6,0,0,0,160.38,9C151.89,9,145,14.9,145,22.23a11.68,11.68,0,0,0,1.65,6c-7,1.26-12.22,6.6-12.22,13,0,7.33,6.88,13.28,15.38,13.28a17.58,17.58,0,0,0,6.79-1.36,9.2,9.2,0,0,0-1,4.2c0,7.33,8.82,13.27,19.7,13.27,7.34,0,13.74-2.7,17.12-6.71a23.15,23.15,0,0,0,13.16,3.87c10.63,0,19.23-6.37,19.23-14.22a12.05,12.05,0,0,0-4.06-8.73C228,43.7,233.44,38.25,233.44,31.71Z" transform="translate(-1 -1)"/><polyline class="cls-4" points="148.95 181.03 175.68 181.03 220.49 181.03"/><polygon class="cls-5" points="214.58 184.21 214.24 183.26 220.39 181.03 214.24 178.78 214.58 177.84 223.31 181.03 214.58 184.21"/><polyline class="cls-4" points="123.74 166.29 138.25 141.5 162.69 99.75"/><polygon class="cls-5" points="162.45 106.46 161.47 106.28 162.64 99.84 157.6 104.02 156.96 103.25 164.12 97.32 162.45 106.46"/><polyline class="cls-4" points="238.07 166.29 223.56 141.5 199.12 99.75"/><polygon class="cls-5" points="204.85 103.25 204.21 104.02 199.17 99.84 200.34 106.28 199.36 106.46 197.69 97.32 204.85 103.25"/><text class="cls-6" transform="matrix(0.5, -0.86, 0.87, 0.49, 128.25, 147.25)">udtrykker</text><text class="cls-6" transform="matrix(0.5, 0.86, -0.87, 0.49, 207.63, 100.3)">falder ind under</text><text class="cls-7" transform="translate(159.87 193.16) scale(1.01 1)">refererer til</text><path class="cls-8" d="M337.3,207.11a.66.66,0,0,1-.67.67h-3.18a3.75,3.75,0,0,0,0-.48,4.33,4.33,0,0,0-8.65,0,3.75,3.75,0,0,0,0,.48H289.81a3.75,3.75,0,0,0,0-.48,4.33,4.33,0,0,0-8.65,0,3.75,3.75,0,0,0,0,.48h-5.05a.67.67,0,0,1-.61-.4c-4.52-10.44,13.49-14.25,15.54-14.64a.61.61,0,0,0,.32-.18c9.72-9.7,33.6-6,35.76-5.67a.7.7,0,0,1,.28.12C336.51,193.6,337.26,204.36,337.3,207.11Z" transform="translate(-1 -1)"/><path class="cls-9" d="M312.6,195.45v-7.83s-16.62.25-19.69,7.83H312.6" transform="translate(-1 -1)"/><path class="cls-9" d="M316.22,195.45h12.23c.5,0-1.58-8.61-12.66-7.58v7.58" transform="translate(-1 -1)"/><rect class="cls-10" x="291.91" y="194.45" width="19.69" height="9.48"/><path class="cls-11" d="M333.48,207.3a3.75,3.75,0,0,1,0,.48,4.33,4.33,0,0,1-8.59,0,3.75,3.75,0,0,1,0-.48,4.33,4.33,0,0,1,8.65,0Z" transform="translate(-1 -1)"/><path class="cls-12" d="M335,207.3c0,.16,0,.33,0,.48h-1.55a3.75,3.75,0,0,0,0-.48,4.33,4.33,0,0,0-8.65,0,3.75,3.75,0,0,0,0,.48H323.3c0-.15,0-.32,0-.48a5.87,5.87,0,0,1,11.74,0Z" transform="translate(-1 -1)"/><path class="cls-11" d="M289.84,207.3a3.75,3.75,0,0,1,0,.48,4.33,4.33,0,0,1-8.59,0,3.75,3.75,0,0,1,0-.48,4.33,4.33,0,0,1,8.65,0Z" transform="translate(-1 -1)"/><line class="cls-13" x1="307.9" y1="197.34" x2="310.03" y2="197.34"/><path class="cls-12" d="M291.38,207.3c0,.16,0,.33,0,.48h-1.54a3.77,3.77,0,0,0,0-.48,4.33,4.33,0,0,0-8.65,0,3.75,3.75,0,0,0,0,.48h-1.56c0-.15,0-.32,0-.48a5.87,5.87,0,0,1,11.73,0Z" transform="translate(-1 -1)"/><path class="cls-14" d="M406.13,206.71a.65.65,0,0,1-.66.66h-3.18a3.59,3.59,0,0,0,0-.47,4.33,4.33,0,0,0-8.65,0,3.62,3.62,0,0,0,0,.47h-35a3.59,3.59,0,0,0,0-.47,4.33,4.33,0,0,0-8.66,0,3.59,3.59,0,0,0,0,.47h-5a.69.69,0,0,1-.62-.4c-4.52-10.44,13.5-14.25,15.54-14.64a.49.49,0,0,0,.32-.18c9.73-9.69,33.61-6,35.76-5.66a.53.53,0,0,1,.29.12C405.34,193.2,406.09,204,406.13,206.71Z" transform="translate(-1 -1)"/><path class="cls-9" d="M381.43,195.05v-7.84s-16.61.25-19.68,7.84h19.68" transform="translate(-1 -1)"/><path class="cls-9" d="M385.05,195.05h12.24c.5-.05-1.59-8.61-12.66-7.59v7.59" transform="translate(-1 -1)"/><rect class="cls-10" x="360.75" y="194.05" width="19.69" height="9.48"/><path class="cls-11" d="M402.32,206.9a3.59,3.59,0,0,1,0,.47,4.33,4.33,0,0,1-8.6,0,3.62,3.62,0,0,1,0-.47,4.33,4.33,0,0,1,8.65,0Z" transform="translate(-1 -1)"/><path class="cls-12" d="M403.85,206.9c0,.16,0,.32,0,.47h-1.55a3.59,3.59,0,0,0,0-.47,4.33,4.33,0,0,0-8.65,0,3.62,3.62,0,0,0,0,.47h-1.55c0-.15,0-.31,0-.47a5.87,5.87,0,0,1,11.73,0Z" transform="translate(-1 -1)"/><path class="cls-11" d="M358.68,206.9a3.59,3.59,0,0,1,0,.47,4.33,4.33,0,0,1-8.6,0,3.59,3.59,0,0,1,0-.47,4.33,4.33,0,0,1,8.66,0Z" transform="translate(-1 -1)"/><line class="cls-13" x1="376.73" y1="196.93" x2="378.86" y2="196.93"/><path class="cls-12" d="M360.22,206.9c0,.16,0,.32,0,.47h-1.55a3.59,3.59,0,0,0,0-.47,4.33,4.33,0,0,0-8.65,0,3.59,3.59,0,0,0,0,.47H348.5c0-.15,0-.31,0-.47a5.87,5.87,0,0,1,11.74,0Z" transform="translate(-1 -1)"/><path class="cls-15" d="M372.43,178.19a.66.66,0,0,1-.66.67h-3.18c0-.16,0-.32,0-.48a4.33,4.33,0,0,0-8.65,0,3.87,3.87,0,0,0,0,.48H324.94a3.87,3.87,0,0,0,0-.48,4.33,4.33,0,0,0-8.65,0,3.87,3.87,0,0,0,0,.48H311.3a.67.67,0,0,1-.61-.4c-4.52-10.44,13.49-14.25,15.54-14.64a.64.64,0,0,0,.32-.18c9.73-9.7,33.61-6,35.76-5.67a.81.81,0,0,1,.29.12C371.64,164.68,372.39,175.44,372.43,178.19Z" transform="translate(-1 -1)"/><path class="cls-9" d="M347.73,166.53V158.7s-16.61.25-19.69,7.83h19.69" transform="translate(-1 -1)"/><path class="cls-9" d="M351.35,166.53h12.24c.49,0-1.59-8.61-12.66-7.58v7.58" transform="translate(-1 -1)"/><rect class="cls-10" x="327.04" y="165.53" width="19.69" height="9.48"/><path class="cls-11" d="M368.61,178.38c0,.16,0,.32,0,.48a4.33,4.33,0,0,1-8.6,0,3.87,3.87,0,0,1,0-.48,4.33,4.33,0,0,1,8.65,0Z" transform="translate(-1 -1)"/><path class="cls-12" d="M370.15,178.38c0,.16,0,.32,0,.48h-1.54c0-.16,0-.32,0-.48a4.33,4.33,0,0,0-8.65,0,3.87,3.87,0,0,0,0,.48h-1.56c0-.16,0-.32,0-.48a5.87,5.87,0,0,1,11.73,0Z" transform="translate(-1 -1)"/><path class="cls-11" d="M325,178.38a3.87,3.87,0,0,1,0,.48,4.33,4.33,0,0,1-8.59,0,3.87,3.87,0,0,1,0-.48,4.33,4.33,0,0,1,8.65,0Z" transform="translate(-1 -1)"/><line class="cls-13" x1="343.03" y1="168.42" x2="345.16" y2="168.42"/><path class="cls-12" d="M326.52,178.38c0,.16,0,.32,0,.48H325a3.87,3.87,0,0,0,0-.48,4.33,4.33,0,0,0-8.65,0c0,.16,0,.32,0,.48H314.8c0-.16,0-.32,0-.48a5.87,5.87,0,0,1,11.74,0Z" transform="translate(-1 -1)"/><path class="cls-11" d="M77.51,153.3h-.18a1.06,1.06,0,0,0-.07.37v.23c0,1.45-.58,2.62-1.29,2.62H2.66c-.71,0-1.28-1.17-1.28-2.62v-18c0-1.45.57-2.62,1.28-2.62H76c.71,0,1.29,1.17,1.29,2.62h0v12.57l.07.22,14.58,6.73Z" transform="translate(-1 -1)"/><path class="cls-11" d="M2.66,186.47c-.71,0-1.28-1.18-1.28-2.62h0v-18c0-1.45.57-2.62,1.28-2.62H76c.71,0,1.29,1.17,1.29,2.62v12.28a.48.48,0,0,0,.11.37l14.35,1.26L77.44,181.6l-.11.15s-.07.15-.07.22v1.88c0,1.44-.58,2.62-1.29,2.62H2.66Z" transform="translate(-1 -1)"/><path class="cls-11" d="M2.77,216.79c-.71,0-1.29-1.17-1.29-2.62v-18c0-1.45.58-2.62,1.29-2.62H76.08c.71,0,1.29,1.17,1.29,2.62v10.33c0,.21.08.37.18.37l14.25-2.55-14.29,5.47a.45.45,0,0,0-.14.38v4c0,1.45-.58,2.62-1.29,2.62Z" transform="translate(-1 -1)"/><g class="cls-16"><text class="cls-17" transform="translate(257.11 32.88) scale(1.01 1)">Definition</text><text class="cls-18" transform="translate(257.11 46.16) scale(1.01 1)">firhjulet motoriseret</text><text class="cls-18" transform="translate(257.11 57.53) scale(1.01 1)">køretøj til persontransport</text><text class="cls-16" x="-1" y="-1"/></g><text class="cls-19" transform="translate(31.83 146.43)">bil</text><text class="cls-19" transform="translate(19.23 178.14)">personbil</text><text class="cls-19" transform="translate(15.48 208.04)">automobil</text><path class="cls-12" d="M214,42.62a.65.65,0,0,1-.66.67h-3.18a3.75,3.75,0,0,0,0-.48,4.33,4.33,0,0,0-8.65,0,3.75,3.75,0,0,0,0,.48h-35a3.75,3.75,0,0,0,0-.48,4.33,4.33,0,0,0-8.66,0,3.75,3.75,0,0,0,0,.48h-5a.69.69,0,0,1-.62-.4c-4.52-10.44,13.5-14.25,15.55-14.64a.55.55,0,0,0,.31-.18c9.73-9.7,33.61-6,35.76-5.67a.74.74,0,0,1,.29.12C213.25,29.11,214,39.87,214,42.62Z" transform="translate(-1 -1)"/><path class="cls-9" d="M189.33,31V23.13s-16.61.25-19.68,7.83h19.68" transform="translate(-1 -1)"/><path class="cls-9" d="M193,31h12.24c.5,0-1.59-8.61-12.66-7.58V31" transform="translate(-1 -1)"/><rect class="cls-9" x="168.65" y="29.96" width="19.69" height="9.48"/><path class="cls-12" d="M210.22,42.81a3.75,3.75,0,0,1,0,.48,4.33,4.33,0,0,1-8.59,0,3.75,3.75,0,0,1,0-.48,4.33,4.33,0,0,1,8.65,0Z" transform="translate(-1 -1)"/><path class="cls-12" d="M211.76,42.81c0,.16,0,.33,0,.48h-1.55a3.75,3.75,0,0,0,0-.48,4.33,4.33,0,0,0-8.65,0,3.75,3.75,0,0,0,0,.48H200c0-.15,0-.32,0-.48a5.87,5.87,0,0,1,11.74,0Z" transform="translate(-1 -1)"/><path class="cls-12" d="M166.58,42.81a3.75,3.75,0,0,1,0,.48,4.33,4.33,0,0,1-8.6,0,3.75,3.75,0,0,1,0-.48,4.33,4.33,0,0,1,8.66,0Z" transform="translate(-1 -1)"/><line class="cls-20" x1="184.63" y1="32.85" x2="186.77" y2="32.85"/><path class="cls-12" d="M168.12,42.81c0,.16,0,.33,0,.48h-1.55a3.75,3.75,0,0,0,0-.48,4.33,4.33,0,0,0-8.65,0,3.75,3.75,0,0,0,0,.48H156.4c0-.15,0-.32,0-.48a5.87,5.87,0,0,1,11.74,0Z" transform="translate(-1 -1)"/></svg>