<?xml version="1.0" encoding="UTF-8" standalone="no"?>
<svg
   xmlns:dc="http://purl.org/dc/elements/1.1/"
   xmlns:cc="http://creativecommons.org/ns#"
   xmlns:rdf="http://www.w3.org/1999/02/22-rdf-syntax-ns#"
   xmlns:svg="http://www.w3.org/2000/svg"
   xmlns="http://www.w3.org/2000/svg"
   xmlns:sodipodi="http://sodipodi.sourceforge.net/DTD/sodipodi-0.dtd"
   xmlns:inkscape="http://www.inkscape.org/namespaces/inkscape"
   version="1.0"
   width="135.1534mm"
   height="54mm"
   id="svg121"
   sodipodi:docname="generaliseringssæt.wmf">
  <metadata
     id="metadata125">
    <rdf:RDF>
      <cc:Work
         rdf:about="">
        <dc:format>image/svg+xml</dc:format>
        <dc:type
           rdf:resource="http://purl.org/dc/dcmitype/StillImage" />
      </cc:Work>
    </rdf:RDF>
  </metadata>
  <sodipodi:namedview
     pagecolor="#ffffff"
     bordercolor="#666666"
     borderopacity="1"
     objecttolerance="10"
     gridtolerance="10"
     guidetolerance="10"
     inkscape:pageopacity="0"
     inkscape:pageshadow="2"
     inkscape:window-width="640"
     inkscape:window-height="480"
     id="namedview123" />
  <defs
     id="defs3">
    <pattern
       id="WMFhbasepattern"
       patternUnits="userSpaceOnUse"
       width="6"
       height="6"
       x="0"
       y="0" />
  </defs>
  <path
     style="fill:#fefaf7;fill-rule:evenodd;fill-opacity:1;stroke:#000000;stroke-width:0.93882352px;stroke-linecap:round;stroke-linejoin:round;stroke-miterlimit:4;stroke-dasharray:none;stroke-opacity:1;"
     d="     M 278.83059,34.695696    C 278.83059,33.659918 279.67124,32.820253 280.70824,32.820253    L 361.44706,32.820253    C 362.48405,32.820253 363.32471,33.659918 363.32471,34.695696    L 363.32471,68.453671    C 363.32471,69.489449 362.48405,70.329114 361.44706,70.329114    L 280.70824,70.329114    C 279.67124,70.329114 278.83059,69.489449 278.83059,68.453671    z  "
     id="path17" />
  <path
     style="fill:none;stroke:#000000;stroke-width:0.93882352px;stroke-linecap:round;stroke-linejoin:round;stroke-miterlimit:4;stroke-dasharray:none;stroke-opacity:1;"
     d="     M 278.83059,34.695696    C 278.83059,33.659918 279.67124,32.820253 280.70824,32.820253    L 361.44706,32.820253    C 362.48405,32.820253 363.32471,33.659918 363.32471,34.695696    L 363.32471,68.453671    C 363.32471,69.489449 362.48405,70.329114 361.44706,70.329114    L 280.70824,70.329114    C 279.67124,70.329114 278.83059,69.489449 278.83059,68.453671    z  "
     id="path19" />
  <text
     xml:space="preserve"
     style="font-size:9.375000px;font-style:normal;font-variant:normal;font-weight:700;font-stretch:Normal;line-height:125.000000%;letter-spacing:0px;word-spacing:0px;fill:#000000;fill-opacity:1;stroke:none;font-family:Calibri;text-align:start;text-anchor:start;"
     transform="matrix(1.000000,-0.000000,0.000000,1.000000,301.362353,38.446582)"
     x="15.021176"
     y="20.892467"
     id="text31"><tspan
       sodipodi:role="line"
       x="15.021176"
       y="17.5"
       id="tspan29"><tspan
         dx="0.000000"
         dy="0.000000"
         style="fill:#000000;font-size:11px;font-style:normal;font-variant:normal;font-weight:700;font-stretch:Normal;font-family:Calibri;"
         id="tspan27">bil</tspan></tspan></text>
  <path
     style="fill:#fefaf7;fill-rule:evenodd;fill-opacity:1;stroke:#000000;stroke-width:0.93882352px;stroke-linecap:round;stroke-linejoin:round;stroke-miterlimit:4;stroke-dasharray:none;stroke-opacity:1;"
     d="     M 151.15059,163.16354    C 151.15059,162.12777 151.99124,161.2881 153.02824,161.2881    L 233.76706,161.2881    C 234.80405,161.2881 235.64471,162.12777 235.64471,163.16354    L 235.64471,196.92152    C 235.64471,197.9573 234.80405,198.79696 233.76706,198.79696    L 153.02824,198.79696    C 151.99124,198.79696 151.15059,197.9573 151.15059,196.92152    z  "
     id="path35" />
  <path
     style="fill:none;stroke:#000000;stroke-width:0.93882352px;stroke-linecap:round;stroke-linejoin:round;stroke-miterlimit:4;stroke-dasharray:none;stroke-opacity:1;"
     d="     M 151.15059,163.16354    C 151.15059,162.12777 151.99124,161.2881 153.02824,161.2881    L 233.76706,161.2881    C 234.80405,161.2881 235.64471,162.12777 235.64471,163.16354    L 235.64471,196.92152    C 235.64471,197.9573 234.80405,198.79696 233.76706,198.79696    L 153.02824,198.79696    C 151.99124,198.79696 151.15059,197.9573 151.15059,196.92152    z  "
     id="path37" />
  <text
     xml:space="preserve"
     style="font-size:9.375000px;font-style:normal;font-variant:normal;font-weight:400;font-stretch:Normal;line-height:128.480584%;letter-spacing:0px;word-spacing:0px;fill:#000000;fill-opacity:1;stroke:none;font-family:Calibri;text-align:end;text-anchor:end;"
     transform="matrix(1.000000,-0.000000,0.000000,1.000000,173.682353,166.914430)"
     x="50.079346"
     y="8.702087"
     id="text47"><tspan
       sodipodi:role="line"
       x="40"
       y="17.5"
       id="tspan45"><tspan
         dx="0.000000"
         dy="0.000000"
         style="fill:#000000;font-size:11px;font-style:normal;font-variant:normal;font-weight:700;font-stretch:Normal;font-family:Calibri;"
         id="tspan43">varevogn</tspan></tspan></text>
  <path
     style="fill:#fefaf7;fill-rule:evenodd;fill-opacity:1;stroke:#000000;stroke-width:0.93882352px;stroke-linecap:round;stroke-linejoin:round;stroke-miterlimit:4;stroke-dasharray:none;stroke-opacity:1;"
     d="     M 23.470588,163.16354    C 23.470588,162.12777 24.311239,161.2881 25.348235,161.2881    L 106.08706,161.2881    C 107.12405,161.2881 107.96471,162.12777 107.96471,163.16354    L 107.96471,196.92152    C 107.96471,197.9573 107.12405,198.79696 106.08706,198.79696    L 25.348235,198.79696    C 24.311239,198.79696 23.470588,197.9573 23.470588,196.92152    z  "
     id="path51" />
  <path
     style="fill:none;stroke:#000000;stroke-width:0.93882352px;stroke-linecap:round;stroke-linejoin:round;stroke-miterlimit:4;stroke-dasharray:none;stroke-opacity:1;"
     d="     M 23.470588,163.16354    C 23.470588,162.12777 24.311239,161.2881 25.348235,161.2881    L 106.08706,161.2881    C 107.12405,161.2881 107.96471,162.12777 107.96471,163.16354    L 107.96471,196.92152    C 107.96471,197.9573 107.12405,198.79696 106.08706,198.79696    L 25.348235,198.79696    C 24.311239,198.79696 23.470588,197.9573 23.470588,196.92152    z  "
     id="path53" />
  <text
     xml:space="preserve"
     style="font-size:9.375000px;font-style:normal;font-variant:normal;font-weight:700;font-stretch:Normal;line-height:125.000000%;letter-spacing:0px;word-spacing:0px;fill:#000000;fill-opacity:1;stroke:none;font-family:Calibri;text-align:start;text-anchor:start;"
     transform="matrix(1.000000,-0.000000,0.000000,1.000000,46.002353,166.914430)"
     x="1.877647"
     y="20.892467"
     id="text65"><tspan
       sodipodi:role="line"
       x="-1"
       y="17.5"
       id="tspan63"><tspan
         dx="0.000000"
         dy="0.000000"
         style="fill:#000000;font-size:11px;font-style:normal;font-variant:normal;font-weight:700;font-stretch:Normal;font-family:Calibri;"
         id="tspan61">personbil</tspan></tspan></text>
  <path
     style="fill:#fefaf7;fill-rule:evenodd;fill-opacity:1;stroke:#000000;stroke-width:0.93882352px;stroke-linecap:round;stroke-linejoin:round;stroke-miterlimit:4;stroke-dasharray:none;stroke-opacity:1;"
     d="     M 278.83059,163.16354    C 278.83059,162.12777 279.67124,161.2881 280.70824,161.2881    L 361.44706,161.2881    C 362.48405,161.2881 363.32471,162.12777 363.32471,163.16354    L 363.32471,196.92152    C 363.32471,197.9573 362.48405,198.79696 361.44706,198.79696    L 280.70824,198.79696    C 279.67124,198.79696 278.83059,197.9573 278.83059,196.92152    z  "
     id="path69" />
  <path
     style="fill:none;stroke:#000000;stroke-width:0.93882352px;stroke-linecap:round;stroke-linejoin:round;stroke-miterlimit:4;stroke-dasharray:none;stroke-opacity:1;"
     d="     M 278.83059,163.16354    C 278.83059,162.12777 279.67124,161.2881 280.70824,161.2881    L 361.44706,161.2881    C 362.48405,161.2881 363.32471,162.12777 363.32471,163.16354    L 363.32471,196.92152    C 363.32471,197.9573 362.48405,198.79696 361.44706,198.79696    L 280.70824,198.79696    C 279.67124,198.79696 278.83059,197.9573 278.83059,196.92152    z  "
     id="path71" />
  <text
     xml:space="preserve"
     style="font-size:9.375000px;font-style:normal;font-variant:normal;font-weight:400;font-stretch:Normal;line-height:128.480584%;letter-spacing:0px;word-spacing:0px;fill:#000000;fill-opacity:1;stroke:none;font-family:Calibri;text-align:center;text-anchor:middle;"
     transform="matrix(1.000000,-0.000000,0.000000,1.000000,301.362353,166.914430)"
     x="25.039673"
     y="8.702087"
     id="text81"><tspan
       sodipodi:role="line"
       x="20.819041"
       y="17.5"
       id="tspan79"><tspan
         dx="0.000000"
         dy="0.000000"
         style="fill:#000000;font-size:11px;font-style:normal;font-variant:normal;font-weight:700;font-stretch:Normal;font-family:Calibri;"
         id="tspan77">lastbil</tspan></tspan></text>
  <path
     style="fill:#fefaf7;fill-rule:evenodd;fill-opacity:1;stroke:#000000;stroke-width:0.93882352px;stroke-linecap:round;stroke-linejoin:round;stroke-miterlimit:4;stroke-dasharray:none;stroke-opacity:1;"
     d="     M 406.51059,163.16354    C 406.51059,162.12777 407.35124,161.2881 408.38824,161.2881    L 485.37176,161.2881    C 486.40876,161.2881 487.24941,162.12777 487.24941,163.16354    L 487.24941,196.92152    C 487.24941,197.9573 486.40876,198.79696 485.37176,198.79696    L 408.38824,198.79696    C 407.35124,198.79696 406.51059,197.9573 406.51059,196.92152    z  "
     id="path85" />
  <path
     style="fill:none;stroke:#000000;stroke-width:0.93882352px;stroke-linecap:round;stroke-linejoin:round;stroke-miterlimit:4;stroke-dasharray:none;stroke-opacity:1;"
     d="     M 406.51059,163.16354    C 406.51059,162.12777 407.35124,161.2881 408.38824,161.2881    L 485.37176,161.2881    C 486.40876,161.2881 487.24941,162.12777 487.24941,163.16354    L 487.24941,196.92152    C 487.24941,197.9573 486.40876,198.79696 485.37176,198.79696    L 408.38824,198.79696    C 407.35124,198.79696 406.51059,197.9573 406.51059,196.92152    z  "
     id="path87" />
  <text
     xml:space="preserve"
     style="font-size:9.375000px;font-style:normal;font-variant:normal;font-weight:700;font-stretch:Normal;line-height:125.000000%;letter-spacing:0px;word-spacing:0px;fill:#000000;fill-opacity:1;stroke:none;font-family:Calibri;text-align:start;text-anchor:start;"
     transform="matrix(1.000000,-0.000000,0.000000,1.000000,427.164706,166.914430)"
     x="8.449412"
     y="20.892467"
     id="text99"><tspan
       sodipodi:role="line"
       x="8.449412"
       y="17.5"
       id="tspan97"><tspan
         dx="0.000000"
         dy="0.000000"
         style="fill:#000000;font-size:11px;font-style:normal;font-variant:normal;font-weight:700;font-stretch:Normal;font-family:Calibri;"
         id="tspan95">lejebil</tspan></tspan></text>
  <path
     style="fill:none;stroke:#000000;stroke-width:0.93882352px;stroke-linecap:round;stroke-linejoin:round;stroke-miterlimit:4;stroke-dasharray:none;stroke-opacity:1;"
     d="  M 192.45882,161.2881   L 192.45882,117.21519  "
     id="path101" />
  <path
     style="fill:none;stroke:#000000;stroke-width:0.93882352px;stroke-linecap:round;stroke-linejoin:round;stroke-miterlimit:4;stroke-dasharray:none;stroke-opacity:1;"
     d="  M 321.07765,117.21519   L 321.07765,70.329114  "
     id="path103" />
  <path
     style="fill:#fcf2e3;fill-rule:evenodd;fill-opacity:1;stroke:#000000;stroke-width:0.93882352px;stroke-linecap:round;stroke-linejoin:round;stroke-miterlimit:4;stroke-dasharray:none;stroke-opacity:1;"
     d="  M 326.71059,85.332658   L 315.44471,85.332658   L 321.07765,70.329114  z "
     id="path105" />
  <path
     style="fill:none;stroke:#000000;stroke-width:0.93882352px;stroke-linecap:round;stroke-linejoin:round;stroke-miterlimit:4;stroke-dasharray:none;stroke-opacity:1;"
     d="  M 64.778824,161.2881   L 64.778824,117.21519  "
     id="path107" />
  <path
     style="fill:none;stroke:#000000;stroke-width:0.93882352px;stroke-linecap:round;stroke-linejoin:round;stroke-miterlimit:4;stroke-dasharray:none;stroke-opacity:1;"
     d=" M 64.778824,117.21519 L 321.07765,117.21519  "
     id="path109" />
  <path
     style="fill:none;stroke:#000000;stroke-width:0.93882352px;stroke-linecap:round;stroke-linejoin:round;stroke-miterlimit:4;stroke-dasharray:none;stroke-opacity:1;"
     d="  M 321.07765,70.329114   M 321.07765,161.2881   L 321.07765,117.21519  "
     id="path111" />
  <path
     style="fill:none;stroke:#000000;stroke-width:0.93882352px;stroke-linecap:round;stroke-linejoin:round;stroke-miterlimit:4;stroke-dasharray:none;stroke-opacity:1;"
     d="  M 445.94118,161.2881   L 445.94118,117.21519   "
     id="path113" />
  <path
     style="fill:none;stroke:#000000;stroke-width:0.93882352px;stroke-linecap:round;stroke-linejoin:round;stroke-miterlimit:4;stroke-dasharray:none;stroke-opacity:1;"
     d="  M 445.94118,117.21519 L 342.67059,117.21519  "
     id="path115" />
  <path
     style="fill:none;stroke:#000000;stroke-width:0.93882352px;stroke-linecap:round;stroke-linejoin:round;stroke-miterlimit:4;stroke-dasharray:none;stroke-opacity:1;"
     d="  M 342.67059,117.21519 L 342.67059,70.329114  "
     id="path117" />
  <path
     style="fill:#fcf2e3;fill-rule:evenodd;fill-opacity:1;stroke:#000000;stroke-width:0.93882352px;stroke-linecap:round;stroke-linejoin:round;stroke-miterlimit:4;stroke-dasharray:none;stroke-opacity:1;"
     d="  M 348.30353,85.332658   L 337.03765,85.332658   L 342.67059,70.329114  z "
     id="path119" />
</svg>
