<?xml version="1.0" encoding="UTF-8" standalone="no"?>
<svg
   version="1.0"
   xmlns:inkscape="http://www.inkscape.org/namespaces/inkscape"
   xmlns:sodipodi="http://sodipodi.sourceforge.net/DTD/sodipodi-0.dtd"
   xmlns="http://www.w3.org/2000/svg"
   xmlns:svg="http://www.w3.org/2000/svg"
   width="56mm"
   height="27mm">
  <sodipodi:namedview
     id="namedview113"
     pagecolor="#ffffff"
     bordercolor="#666666"
     borderopacity="1.0"
	/>
 
  <path
     style="fill:#e8fde3;fill-rule:evenodd;fill-opacity:1;stroke:#000000;stroke-width:0.54314566px;stroke-linecap:round;stroke-linejoin:round;stroke-miterlimit:4;stroke-dasharray:none;stroke-opacity:1;"
     d="     M 84.730718,20.054354    C 84.730718,19.455667 85.217068,18.970335 85.81701,18.970335    L 137.95899,18.970335    C 138.55893,18.970335 139.04528,19.455667 139.04528,20.054354    L 139.04528,44.986794    C 139.04528,45.585481 138.55893,46.070813 137.95899,46.070813    L 85.81701,46.070813    C 85.217068,46.070813 84.730718,45.585481 84.730718,44.986794    z  "
     id="path17" />

  <text
     xml:space="preserve"
     style="font-size:5.437500px;font-style:normal;font-variant:normal;font-weight:700;font-stretch:Normal;line-height:125.000000%;letter-spacing:0px;word-spacing:0px;fill:#000000;fill-opacity:1;stroke:none;font-family:Calibri;text-align:start;text-anchor:start;"
     transform="matrix(1.000000,-0.000000,0.000000,1.000000,104.827107,23.848421)"
     x="0.000000"
     y="5.047211"
     id="text25"><tspan
       sodipodi:role="line"
       x="0.000000"
       y="5.047211"
       id="tspan23"><tspan
         dx="0.000000"
         dy="0.000000"
         style="fill:#000000;font-size:5.437500px;font-style:normal;font-variant:normal;font-weight:700;font-stretch:Normal;font-family:Calibri;"
         id="tspan21">Type1</tspan></tspan></text>
  <path
     style="fill:#e1e1e1;fill-rule:evenodd;fill-opacity:1;stroke:#000000;stroke-width:0.54314566px;stroke-linecap:round;stroke-linejoin:round;stroke-miterlimit:4;stroke-dasharray:none;stroke-opacity:1;"
     d="     M 87.446447,78.591388    C 87.446447,77.9927 87.932796,77.507368 88.532738,77.507368    L 135.24326,77.507368    C 135.8432,77.507368 136.32955,77.9927 136.32955,78.591388    L 136.32955,98.645742    C 136.32955,99.244429 135.8432,99.729761 135.24326,99.729761    L 88.532738,99.729761    C 87.932796,99.729761 87.446447,99.244429 87.446447,98.645742    z  "
     id="path29" />
  <text
     xml:space="preserve"
     style="font-size:5.437500px;font-style:normal;font-variant:normal;font-weight:700;font-stretch:Normal;line-height:125.000000%;letter-spacing:0px;word-spacing:0px;fill:#000000;fill-opacity:1;stroke:none;font-family:Calibri;text-align:start;text-anchor:start;"
     transform="matrix(1.000000,-0.000000,0.000000,1.000000,95.050485,82.385455)"
     x="0.000000"
     y="5.047211"
     id="text37"><tspan
       sodipodi:role="line"
       x="0.000000"
       y="5.047211"
       id="tspan35"><tspan
         dx="0.000000"
         dy="0.000000"
         style="fill:#000000;font-size:5.437500px;font-style:normal;font-variant:normal;font-weight:700;font-stretch:Normal;font-family:Calibri;"
         id="tspan33">Object2: Type1</tspan></tspan></text>
  <path
     style="fill:none;stroke:#000000;stroke-width:0.54314566px;stroke-linecap:round;stroke-linejoin:round;stroke-miterlimit:4;stroke-dasharray:none;stroke-opacity:1;"
     d="  M 95.050485,88.889569   L 128.72551,88.889569  "
     id="path39" />

  <path
     style="fill:#e1e1e1;fill-rule:evenodd;fill-opacity:1;stroke:#000000;stroke-width:0.54314566px;stroke-linecap:round;stroke-linejoin:round;stroke-miterlimit:4;stroke-dasharray:none;stroke-opacity:1;"
     d="     M 13.578641,78.591388    C 13.578641,77.9927 14.06499,77.507368 14.664932,77.507368    L 61.375456,77.507368    C 61.975398,77.507368 62.461748,77.9927 62.461748,78.591388    L 62.461748,98.103732    C 62.461748,98.702419 61.975398,99.187751 61.375456,99.187751    L 14.664932,99.187751    C 14.06499,99.187751 13.578641,98.702419 13.578641,98.103732    z  "
     id="path43" />

  <text
     xml:space="preserve"
     style="font-size:5.437500px;font-style:normal;font-variant:normal;font-weight:700;font-stretch:Normal;line-height:125.000000%;letter-spacing:0px;word-spacing:0px;fill:#000000;fill-opacity:1;stroke:none;font-family:Calibri;text-align:start;text-anchor:start;"
     transform="matrix(1.000000,-0.000000,0.000000,1.000000,21.182680,82.385455)"
     x="0.000000"
     y="5.047211"
     id="text51"><tspan
       sodipodi:role="line"
       x="0.000000"
       y="5.047211"
       id="tspan49"><tspan
         dx="0.000000"
         dy="0.000000"
         style="fill:#000000;font-size:5.437500px;font-style:normal;font-variant:normal;font-weight:700;font-stretch:Normal;font-family:Calibri;"
         id="tspan47">Object1: Type1</tspan></tspan></text>
  <path
     style="fill:none;stroke:#000000;stroke-width:0.54314566px;stroke-linecap:round;stroke-linejoin:round;stroke-miterlimit:4;stroke-dasharray:none;stroke-opacity:1;"
     d="  M 21.18268,88.889569   L 54.857709,88.889569  "
     id="path53" />

  <path
     style="fill:#e1e1e1;fill-rule:evenodd;fill-opacity:1;stroke:#000000;stroke-width:0.54314566px;stroke-linecap:round;stroke-linejoin:round;stroke-miterlimit:4;stroke-dasharray:none;stroke-opacity:1;"
     d="     M 161.31425,78.591388    C 161.31425,77.9927 161.8006,77.507368 162.40054,77.507368    L 209.11107,77.507368    C 209.71101,77.507368 210.19736,77.9927 210.19736,78.591388    L 210.19736,98.645742    C 210.19736,99.244429 209.71101,99.729761 209.11107,99.729761    L 162.40054,99.729761    C 161.8006,99.729761 161.31425,99.244429 161.31425,98.645742    z  "
     id="path57" />

  <text
     xml:space="preserve"
     style="font-size:5.437500px;font-style:normal;font-variant:normal;font-weight:700;font-stretch:Normal;line-height:125.000000%;letter-spacing:0px;word-spacing:0px;fill:#000000;fill-opacity:1;stroke:none;font-family:Calibri;text-align:start;text-anchor:start;"
     transform="matrix(1.000000,-0.000000,0.000000,1.000000,168.918291,82.385455)"
     x="0.000000"
     y="5.047211"
     id="text65"><tspan
       sodipodi:role="line"
       x="0.000000"
       y="5.047211"
       id="tspan63"><tspan
         dx="0.000000"
         dy="0.000000"
         style="fill:#000000;font-size:5.437500px;font-style:normal;font-variant:normal;font-weight:700;font-stretch:Normal;font-family:Calibri;"
         id="tspan61">Object3: Type1</tspan></tspan></text>
  <path
     style="fill:none;stroke:#000000;stroke-width:0.54314566px;stroke-linecap:round;stroke-linejoin:round;stroke-miterlimit:4;stroke-dasharray:none;stroke-opacity:1;"
     d="  M 168.91829,88.889569   L 202.59332,88.889569  "
     id="path67" />
  <path
     style="fill:none;stroke:#000000;stroke-width:0.54314566px;stroke-linecap:round;stroke-linejoin:round;stroke-miterlimit:4;stroke-dasharray:none;stroke-opacity:1;"
     d="  M 182.49693,77.507368   M 139.04528,43.902775   L 142.8473,46.612823   M 145.01988,48.238852   L 148.8219,50.9489   M 150.99449,53.116938   L 154.7965,55.826986   M 156.96909,57.453014   L 160.77111,60.705072   M 162.94369,62.3311   L 166.74571,65.041148   M 168.91829,66.667177   L 172.72031,69.919234   M 174.89289,71.545263   L 178.69491,74.255311   M 180.8675,75.88134   L 182.49693,77.507368  "
     id="path69" />
  <path
     style="fill:none;stroke:#000000;stroke-width:0.54314566px;stroke-linecap:round;stroke-linejoin:round;stroke-miterlimit:4;stroke-dasharray:none;stroke-opacity:1;"
     d="  M 139.04528,43.902775   L 147.19247,46.612823   M 139.04528,43.902775   L 143.93359,50.9489  "
     id="path71" />
  <path
     style="fill:none;stroke:#000000;stroke-width:0.54314566px;stroke-linecap:round;stroke-linejoin:round;stroke-miterlimit:4;stroke-dasharray:none;stroke-opacity:1;"
     d="  M 42.365359,77.507368   M 84.730718,44.986794   L 80.928699,47.696842   M 78.756117,49.322871   L 74.954097,52.032919   M 72.781515,53.658947   L 68.979495,56.911005   M 66.806913,58.537033   L 63.004893,61.247081   M 60.832311,62.87311   L 57.030291,66.125167   M 54.857709,67.751196   L 51.055689,70.461244   M 48.883107,72.087273   L 45.081087,75.33933   M 42.908505,76.965359   L 42.365359,77.507368  "
     id="path73" />
  <path
     style="fill:none;stroke:#000000;stroke-width:0.54314566px;stroke-linecap:round;stroke-linejoin:round;stroke-miterlimit:4;stroke-dasharray:none;stroke-opacity:1;"
     d="  M 84.730718,44.986794   L 79.842408,52.032919   M 84.730718,44.986794   L 76.583534,47.696842  "
     id="path75" />
  <path
     style="fill:none;stroke:#000000;stroke-width:0.54314566px;stroke-linecap:round;stroke-linejoin:round;stroke-miterlimit:4;stroke-dasharray:none;stroke-opacity:1;"
     d="  M 111.888,77.507368   M 111.888,46.070813   L 111.888,49.86488   M 111.888,52.032919   L 111.888,55.826986   M 111.888,57.995024   L 111.888,61.789091   M 111.888,63.957129   L 111.888,67.751196   M 111.888,69.919234   L 111.888,73.713301   M 111.888,75.88134   L 111.888,77.507368  "
     id="path77" />
  <path
     style="fill:none;stroke:#000000;stroke-width:0.54314566px;stroke-linecap:round;stroke-linejoin:round;stroke-miterlimit:4;stroke-dasharray:none;stroke-opacity:1;"
     d="  M 111.888,46.070813   L 114.60373,54.200957   M 111.888,46.070813   L 109.17227,54.200957  "
     id="path79" />
  <g
     id="g83">
    <rect
       style="color-interpolation:sRGB;color-interpolation-filters:linearRGB;fill:#FFFFFF;;stroke:none;;stroke-dasharray:none;marker:none;visibility:visible;display:inline;overflow:visible;enable-background:accumulate;clip-rule:nonzero"
       width="12.146759"
       height="4.948975"
       x="0.000000"
       y="1.229279"
       transform="matrix(1.000000,-0.000000,0.000000,1.000000,106.999689,54.200957)"
       id="rect81" />
  </g>
  <text
     xml:space="preserve"
     style="font-size:5.437500px;font-style:normal;font-variant:normal;font-weight:400;font-stretch:Normal;line-height:125.000000%;letter-spacing:0px;word-spacing:0px;fill:#000000;fill-opacity:1;stroke:none;font-family:Calibri;text-align:start;text-anchor:start;"
     transform="matrix(1.000000,-0.000000,0.000000,1.000000,106.999689,54.200957)"
     x="0.000000"
     y="5.047211"
     id="text89"><tspan
       sodipodi:role="line"
       x="0.000000"
       y="5.047211"
       id="tspan87"><tspan
         dx="0.000000"
         dy="0.000000"
         style="fill:#000000;font-size:5.437500px;font-style:normal;font-variant:normal;font-weight:400;font-stretch:Normal;font-family:Calibri;"
         id="tspan85">type</tspan></tspan></text>
  <g
     id="g93">
    <rect
       style="color-interpolation:sRGB;color-interpolation-filters:linearRGB;fill:#FFFFFF;;stroke:none;;stroke-dasharray:none;marker:none;visibility:visible;display:inline;overflow:visible;enable-background:accumulate;clip-rule:nonzero"
       width="12.146759"
       height="4.948975"
       x="0.000000"
       y="1.229279"
       transform="matrix(1.000000,-0.000000,0.000000,1.000000,58.659728,53.658947)"
       id="rect91" />
  </g>
  <text
     xml:space="preserve"
     style="font-size:5.437500px;font-style:normal;font-variant:normal;font-weight:400;font-stretch:Normal;line-height:125.000000%;letter-spacing:0px;word-spacing:0px;fill:#000000;fill-opacity:1;stroke:none;font-family:Calibri;text-align:start;text-anchor:start;"
     transform="matrix(1.000000,-0.000000,0.000000,1.000000,58.659728,53.658947)"
     x="0.000000"
     y="5.047211"
     id="text99"><tspan
       sodipodi:role="line"
       x="0.000000"
       y="5.047211"
       id="tspan97"><tspan
         dx="0.000000"
         dy="0.000000"
         style="fill:#000000;font-size:5.437500px;font-style:normal;font-variant:normal;font-weight:400;font-stretch:Normal;font-family:Calibri;"
         id="tspan95">type</tspan></tspan></text>
  <g
     id="g103">
    <rect
       style="color-interpolation:sRGB;color-interpolation-filters:linearRGB;fill:#FFFFFF;;stroke:none;;stroke-dasharray:none;marker:none;visibility:visible;display:inline;overflow:visible;enable-background:accumulate;clip-rule:nonzero"
       width="12.146759"
       height="4.948975"
       x="0.000000"
       y="1.229279"
       transform="matrix(1.000000,-0.000000,0.000000,1.000000,155.882796,53.116938)"
       id="rect101" />
  </g>
  <text
     xml:space="preserve"
     style="font-size:5.437500px;font-style:normal;font-variant:normal;font-weight:400;font-stretch:Normal;line-height:125.000000%;letter-spacing:0px;word-spacing:0px;fill:#000000;fill-opacity:1;stroke:none;font-family:Calibri;text-align:start;text-anchor:start;"
     transform="matrix(1.000000,-0.000000,0.000000,1.000000,155.882796,53.116938)"
     x="0.000000"
     y="5.047211"
     id="text109"><tspan
       sodipodi:role="line"
       x="0.000000"
       y="5.047211"
       id="tspan107"><tspan
         dx="0.000000"
         dy="0.000000"
         style="fill:#000000;font-size:5.437500px;font-style:normal;font-variant:normal;font-weight:400;font-stretch:Normal;font-family:Calibri;"
         id="tspan105">type</tspan></tspan></text>
</svg>
