<?xml version="1.0" encoding="UTF-8" standalone="no"?>
<svg
   xmlns:svg="http://www.w3.org/2000/svg"
   xmlns="http://www.w3.org/2000/svg"
   xmlns:sodipodi="http://sodipodi.sourceforge.net/DTD/sodipodi-0.dtd"
   width="45mm"
   height="30mm"
   viewBox="60 25 155 110"
  >
 
  <path
     style="fill:#fefaf7;fill-rule:evenodd;fill-opacity:1;stroke:#000000;stroke-width:0.93882352px;stroke-linecap:round;stroke-linejoin:round;stroke-miterlimit:4;stroke-dasharray:none;stroke-opacity:1;"
     d="     M 93.882353,34.6912    C 93.882353,33.655556 94.723004,32.816 95.76,32.816    L 176.49882,32.816    C 177.53582,32.816 178.37647,33.655556 178.37647,34.6912    L 178.37647,75.008    C 178.37647,76.043644 177.53582,76.8832 176.49882,76.8832    L 95.76,76.8832    C 94.723004,76.8832 93.882353,76.043644 93.882353,75.008    z  "
     id="path41" />

  <text
     xml:space="preserve"
     style="font-size:9.375000px;font-style:normal;font-variant:normal;font-weight:700;font-stretch:Normal;line-height:125.000000%;letter-spacing:0px;word-spacing:0px;fill:#000000;fill-opacity:1;stroke:none;font-family:Calibri;text-align:start;text-anchor:start;"
     transform="matrix(1.000000,-0.000000,0.000000,1.000000,101.392941,41.254400)"
     x="0.000000"
     y="8.702087"
     id="text49"><tspan
       sodipodi:role="line"
       x="0.000000"
       y="8.702087"
       id="tspan47"><tspan
         dx="0.000000"
         dy="0.000000"
         style="fill:#000000;font-size:9.375000px;font-style:normal;font-variant:normal;font-weight:700;font-stretch:Normal;font-family:Calibri;"
         id="tspan45">Tilknytningsklasse</tspan></tspan></text>
  <path
     style="fill:none;stroke:#000000;stroke-width:0.93882352px;stroke-linecap:round;stroke-linejoin:round;stroke-miterlimit:4;stroke-dasharray:none;stroke-opacity:1;"
     d="  M 63,118.1376   L 209.5,118.1376  "
     id="path51" />
  <path
     style="fill:none;stroke:#000000;stroke-width:0.93882352px;stroke-linecap:round;stroke-linejoin:round;stroke-miterlimit:4;stroke-dasharray:none;stroke-opacity:1;"
     d="  M 136.12941,118.1376   L 136.12941,111.5744   M 136.12941,107.824   L 136.12941,101.2608   M 136.12941,97.5104   L 136.12941,90.9472   M 136.12941,87.1968   L 136.12941,80.6336   M 136.12941,76.8832  "
     id="path53" />
</svg>
