<?xml version="1.0" encoding="UTF-8" standalone="no"?>
<svg
   xmlns:dc="http://purl.org/dc/elements/1.1/"
   xmlns:cc="http://creativecommons.org/ns#"
   xmlns:rdf="http://www.w3.org/1999/02/22-rdf-syntax-ns#"
   xmlns:svg="http://www.w3.org/2000/svg"
   xmlns="http://www.w3.org/2000/svg"
   xmlns:sodipodi="http://sodipodi.sourceforge.net/DTD/sodipodi-0.dtd"
   xmlns:inkscape="http://www.inkscape.org/namespaces/inkscape"
   version="1.0"
   width="92.252799mm"
   height="36.728398mm"
   id="svg53"
   sodipodi:docname="præfix.wmf">
  <metadata
     id="metadata57">
    <rdf:RDF>
      <cc:Work
         rdf:about="">
        <dc:format>image/svg+xml</dc:format>
        <dc:type
           rdf:resource="http://purl.org/dc/dcmitype/StillImage" />
      </cc:Work>
    </rdf:RDF>
  </metadata>
  <sodipodi:namedview
     pagecolor="#ffffff"
     bordercolor="#666666"
     borderopacity="1"
     objecttolerance="10"
     gridtolerance="10"
     guidetolerance="10"
     inkscape:pageopacity="0"
     inkscape:pageshadow="2"
     inkscape:window-width="640"
     inkscape:window-height="480"
     id="namedview55" />
  <defs
     id="defs3">
    <pattern
       id="WMFhbasepattern"
       patternUnits="userSpaceOnUse"
       width="6"
       height="6"
       x="0"
       y="0" />
  </defs>

  <path
     style="fill:#fefaf7;fill-rule:evenodd;fill-opacity:1;stroke:#000000;stroke-width:1.0530998px;stroke-linecap:round;stroke-linejoin:round;stroke-miterlimit:4;stroke-dasharray:none;stroke-opacity:1;"
     d="     M 227.46953,39.481846    C 227.46953,38.303186 228.41251,37.347692 229.57573,37.347692    L 320.14231,37.347692    C 321.30553,37.347692 322.24851,38.303186 322.24851,39.481846    L 322.24851,109.90892    C 322.24851,111.08758 321.30553,112.04308 320.14231,112.04308    L 229.57573,112.04308    C 228.41251,112.04308 227.46953,111.08758 227.46953,109.90892    z  "
     id="path17" />

  <text
     xml:space="preserve"
     style="font-size:10.500000px;font-style:normal;font-variant:normal;font-weight:700;font-stretch:Normal;line-height:125.000000%;letter-spacing:0px;word-spacing:0px;fill:#000000;fill-opacity:1;stroke:none;font-family:Calibri;text-align:start;text-anchor:start;"
     transform="matrix(1.000000,-0.000000,0.000000,1.000000,247.478429,46.951385)"
     x="0.000000"
     y="9.746338"
     id="text25"><tspan
       sodipodi:role="line"
       x="0.000000"
       y="9.746338"
       id="tspan23"><tspan
         dx="0.000000"
         dy="0.000000"
         style="fill:#000000;font-size:10.500000px;font-style:normal;font-variant:normal;font-weight:700;font-stretch:Normal;font-family:Calibri;"
         id="tspan21">dcat:Dataset</tspan></tspan></text>
  <path
     style="fill:#ffffff;fill-rule:evenodd;fill-opacity:1;stroke:none;"
     d="     M 29.486792,42.683077    C 29.486792,41.504416 30.429769,40.548923 31.592991,40.548923    L 122.15956,40.548923    C 123.32279,40.548923 124.26576,41.504416 124.26576,42.683077    L 124.26576,113.11015    C 124.26576,114.28881 123.32279,115.24431 122.15956,115.24431    L 31.592991,115.24431    C 30.429769,115.24431 29.486792,114.28881 29.486792,113.11015    z  "
     id="path27" />
  <path
     style="fill:#fefaf7;fill-rule:evenodd;fill-opacity:1;stroke:#000000;stroke-width:1.0530998px;stroke-linecap:round;stroke-linejoin:round;stroke-miterlimit:4;stroke-dasharray:none;stroke-opacity:1;"
     d="     M 26.327492,39.481846    C 26.327492,38.303186 27.27047,37.347692 28.433692,37.347692    L 119.00027,37.347692    C 120.16349,37.347692 121.10647,38.303186 121.10647,39.481846    L 121.10647,109.90892    C 121.10647,111.08758 120.16349,112.04308 119.00027,112.04308    L 28.433692,112.04308    C 27.27047,112.04308 26.327492,111.08758 26.327492,109.90892    z  "
     id="path29" />
  <path
     style="fill:none;stroke:#000000;stroke-width:1.0530998px;stroke-linecap:round;stroke-linejoin:round;stroke-miterlimit:4;stroke-dasharray:none;stroke-opacity:1;"
     d="     M 26.327492,39.481846    C 26.327492,38.303186 27.27047,37.347692 28.433692,37.347692    L 119.00027,37.347692    C 120.16349,37.347692 121.10647,38.303186 121.10647,39.481846    L 121.10647,109.90892    C 121.10647,111.08758 120.16349,112.04308 119.00027,112.04308    L 28.433692,112.04308    C 27.27047,112.04308 26.327492,111.08758 26.327492,109.90892    z  "
     id="path31" />
  <text
     xml:space="preserve"
     style="font-size:10.500000px;font-style:normal;font-variant:normal;font-weight:700;font-stretch:Normal;line-height:125.000000%;letter-spacing:0px;word-spacing:0px;fill:#000000;fill-opacity:1;stroke:none;font-family:Calibri;text-align:start;text-anchor:start;"
     transform="matrix(1.000000,-0.000000,0.000000,1.000000,47.389486,46.951385)"
     x="0.000000"
     y="9.746338"
     id="text37"><tspan
       sodipodi:role="line"
       x="0.000000"
       y="9.746338"
       id="tspan35"><tspan
         dx="0.000000"
         dy="0.000000"
         style="fill:#000000;font-size:10.500000px;font-style:normal;font-variant:normal;font-weight:700;font-stretch:Normal;font-family:Calibri;"
         id="tspan33">dcat:Catalog</tspan></tspan></text>
  <path
     style="fill:none;stroke:#000000;stroke-width:1.0530998px;stroke-linecap:round;stroke-linejoin:round;stroke-miterlimit:4;stroke-dasharray:none;stroke-opacity:1;"
     d="  M 121.10647,74.695385   L 227.46953,74.695385  "
     id="path39" />
  <path
     style="fill:none;stroke:#000000;stroke-width:1.0530998px;stroke-linecap:round;stroke-linejoin:round;stroke-miterlimit:4;stroke-dasharray:none;stroke-opacity:1;"
     d="  M 211.67304,81.097846   L 227.46953,74.695385   L 211.67304,68.292923  "
     id="path41" />
  <text
     xml:space="preserve"
     style="font-size:10.500000px;font-style:normal;font-variant:normal;font-weight:400;font-stretch:Normal;line-height:125.000000%;letter-spacing:0px;word-spacing:0px;fill:#000000;fill-opacity:1;stroke:none;font-family:Calibri;text-align:start;text-anchor:start;"
     transform="matrix(1.000000,-0.000000,0.000000,1.000000,168.495952,54.420923)"
     x="0.000000"
     y="9.746338"
     id="text51"><tspan
       sodipodi:role="line"
       x="0.000000"
       y="9.746338"
       id="tspan49"><tspan
         dx="0.000000"
         dy="0.000000"
         style="fill:#000000;font-size:10.500000px;font-style:normal;font-variant:normal;font-weight:400;font-stretch:Normal;font-family:Calibri;"
         id="tspan47">dcat:dataset</tspan></tspan></text>

</svg>
