<?xml version="1.0" encoding="UTF-8" standalone="no"?>
<!-- Created with Inkscape (http://www.inkscape.org/) -->

<svg
   xmlns:dc="http://purl.org/dc/elements/1.1/"
   xmlns:cc="http://creativecommons.org/ns#"
   xmlns:rdf="http://www.w3.org/1999/02/22-rdf-syntax-ns#"
   xmlns:svg="http://www.w3.org/2000/svg"
   xmlns="http://www.w3.org/2000/svg"
   xmlns:sodipodi="http://sodipodi.sourceforge.net/DTD/sodipodi-0.dtd"
   xmlns:inkscape="http://www.inkscape.org/namespaces/inkscape"
   width="100mm"
   height="100mm"
   id="svg5001"
   version="1.1"
   inkscape:version="0.48.4 r9939"
   sodipodi:docname="New document 8">
  <defs
     id="defs5003" />
  <sodipodi:namedview
     inkscape:document-units="mm"
     pagecolor="#ffffff"
     bordercolor="#666666"
     borderopacity="1.0"
     inkscape:pageopacity="0.0"
     inkscape:pageshadow="2"
     inkscape:zoom="0.43415836"
     inkscape:cx="490"
     inkscape:cy="380"
     inkscape:current-layer="layer1"
     id="namedview5005"
     showgrid="false"
     inkscape:window-width="1280"
     inkscape:window-height="657"
     inkscape:window-x="-8"
     inkscape:window-y="-8"
     inkscape:window-maximized="1" />
  <metadata
     id="metadata5007">
    <rdf:RDF>
      <cc:Work
         rdf:about="">
        <dc:format>image/svg+xml</dc:format>
        <dc:type
           rdf:resource="http://purl.org/dc/dcmitype/StillImage" />
        <dc:title></dc:title>
      </cc:Work>
    </rdf:RDF>
  </metadata>
  <g
     inkscape:label="Layer 1"
     inkscape:groupmode="layer"
     id="layer1">
    <polygon
       class="st0"
       points="26.5,90.1 52.5,105.1 52.5,135.1 26.5,120.1 "
       id="polygon4861-2"
       style="fill:#86afde;stroke:#030305;stroke-linecap:round;stroke-linejoin:round"
       transform="translate(9.7517326,10.424738)" />
    <polygon
       class="st1"
       points="261,46 261,76 235,91 235,61 "
       id="polygon4863-5"
       style="fill:#c3bb74;stroke:#030305;stroke-linecap:round;stroke-linejoin:round"
       transform="translate(9.7517326,10.424738)" />
    <polygon
       class="st0"
       points="104.7,45.5 130.7,60.5 130.7,90.5 104.7,75.5 "
       id="polygon4865-3"
       style="fill:#86afde;stroke:#030305;stroke-linecap:round;stroke-linejoin:round"
       transform="translate(9.7517326,10.424738)" />
    <polygon
       class="st2"
       points="156.7,45.5 156.7,75.5 130.7,90.5 130.7,60.5 "
       id="polygon4867-4"
       style="fill:#fdeaee;stroke:#030305;stroke-linecap:round;stroke-linejoin:round"
       transform="translate(9.7517326,10.424738)" />
    <polygon
       class="st3"
       points="156.7,45.5 130.7,60.5 104.7,45.5 130.7,30.5 "
       id="polygon4869-7"
       style="fill:#9fc8ec;stroke:#030305;stroke-linecap:round;stroke-linejoin:round"
       transform="translate(9.7517326,10.424738)" />
    <polygon
       class="st4"
       points="104.5,75.3 130.4,90.3 130.4,120.3 104.5,105.3 "
       id="polygon4871-9"
       style="fill:#b9d9ac;stroke:#030305;stroke-linecap:round;stroke-linejoin:round"
       transform="translate(9.7517326,10.424738)" />
    <polygon
       class="st2"
       points="156.4,75.3 156.4,105.3 130.4,120.3 130.4,90.3 "
       id="polygon4873-5"
       style="fill:#fdeaee;stroke:#030305;stroke-linecap:round;stroke-linejoin:round"
       transform="translate(9.7517326,10.424738)" />
    <polygon
       class="st5"
       points="156.4,75.3 130.4,90.3 104.5,75.3 130.4,60.3 "
       id="polygon4875-5"
       style="fill:#d1e5c0;stroke:#030305;stroke-linecap:round;stroke-linejoin:round"
       transform="translate(9.7517326,10.424738)" />
    <polygon
       class="st6"
       points="130.4,180.4 156.4,195.4 156.4,225.4 130.4,210.4 "
       id="polygon4877-8"
       style="fill:#fef7fb;stroke:#030305;stroke-linecap:round;stroke-linejoin:round"
       transform="translate(9.7517326,10.424738)" />
    <polygon
       class="st7"
       points="182.4,180.4 182.4,210.4 156.4,225.4 156.4,195.4 "
       id="polygon4879-6"
       style="fill:#aaadaf;stroke:#030305;stroke-linecap:round;stroke-linejoin:round"
       transform="translate(9.7517326,10.424738)" />
    <polygon
       class="st8"
       points="182.4,180.4 156.4,195.4 130.4,180.4 156.4,165.4 "
       id="polygon4881-3"
       style="fill:#dee1e3;stroke:#030305;stroke-linecap:round;stroke-linejoin:round"
       transform="translate(9.7517326,10.424738)" />
    <polygon
       class="st4"
       points="104.4,195.3 130.4,210.3 130.4,240.3 104.4,225.3 "
       id="polygon4883-5"
       style="fill:#b9d9ac;stroke:#030305;stroke-linecap:round;stroke-linejoin:round"
       transform="translate(9.7517326,10.424738)" />
    <polygon
       class="st9"
       points="156.4,195.3 156.4,225.3 130.4,240.3 130.4,210.3 "
       id="polygon4885-4"
       style="fill:#a0be90;stroke:#030305;stroke-linecap:round;stroke-linejoin:round"
       transform="translate(9.7517326,10.424738)" />
    <polygon
       class="st5"
       points="156.4,195.3 130.4,210.3 104.4,195.3 130.4,180.3 "
       id="polygon4887-9"
       style="fill:#d1e5c0;stroke:#030305;stroke-linecap:round;stroke-linejoin:round"
       transform="translate(9.7517326,10.424738)" />
    <polygon
       class="st10"
       points="0.5,135.3 26.5,150.3 26.5,180.3 0.5,165.3 "
       id="polygon4889-6"
       style="fill:#c4c7c9;stroke:#030305;stroke-linecap:round;stroke-linejoin:round"
       transform="translate(9.7517326,10.424738)" />
    <polygon
       class="st2"
       points="52.5,135.3 52.5,165.3 26.5,180.3 26.5,150.3 "
       id="polygon4891-2"
       style="fill:#fdeaee;stroke:#030305;stroke-linecap:round;stroke-linejoin:round"
       transform="translate(9.7517326,10.424738)" />
    <polygon
       class="st8"
       points="52.5,135.3 26.5,150.3 0.5,135.3 26.5,120.3 "
       id="polygon4893-1"
       style="fill:#dee1e3;stroke:#030305;stroke-linecap:round;stroke-linejoin:round"
       transform="translate(9.7517326,10.424738)" />
    <polygon
       class="st0"
       points="182.7,180.6 208.7,195.6 208.7,225.6 182.7,210.6 "
       id="polygon4895-6"
       style="fill:#86afde;stroke:#030305;stroke-linecap:round;stroke-linejoin:round"
       transform="translate(9.7517326,10.424738)" />
    <polygon
       class="st11"
       points="234.6,180.6 234.6,210.6 208.7,225.6 208.7,195.6 "
       id="polygon4897-5"
       style="fill:#6c96c8;stroke:#030305;stroke-linecap:round;stroke-linejoin:round"
       transform="translate(9.7517326,10.424738)" />
    <polygon
       class="st3"
       points="234.6,180.6 208.7,195.6 182.7,180.6 208.7,165.6 "
       id="polygon4899-3"
       style="fill:#9fc8ec;stroke:#030305;stroke-linecap:round;stroke-linejoin:round"
       transform="translate(9.7517326,10.424738)" />
    <polygon
       class="st12"
       points="0.5,165.1 26.5,180.1 26.5,210.1 0.5,195.1 "
       id="polygon4901-5"
       style="fill:#dcd590;stroke:#030305;stroke-linecap:round;stroke-linejoin:round"
       transform="translate(9.7517326,10.424738)" />
    <polygon
       class="st13"
       points="52.5,165.1 52.5,195.1 26.5,210.1 26.5,180.1 "
       id="polygon4903-9"
       style="fill:#fcf7ee;stroke:#030305;stroke-linecap:round;stroke-linejoin:round"
       transform="translate(9.7517326,10.424738)" />
    <polygon
       class="st14"
       points="52.5,165.1 26.5,180.1 0.5,165.1 26.5,150.1 "
       id="polygon4905-9"
       style="fill:#f6f0ab;stroke:#030305;stroke-linecap:round;stroke-linejoin:round"
       transform="translate(9.7517326,10.424738)" />
    <polygon
       class="st8"
       points="78.4,120.3 52.5,135.3 26.5,120.3 52.5,105.3 "
       id="polygon4907-8"
       style="fill:#dee1e3;stroke:#030305;stroke-linecap:round;stroke-linejoin:round"
       transform="translate(9.7517326,10.424738)" />
    <polygon
       class="st5"
       points="130.4,180.3 104.4,195.3 78.4,180.3 104.4,165.3 "
       id="polygon4909-1"
       style="fill:#d1e5c0;stroke:#030305;stroke-linecap:round;stroke-linejoin:round"
       transform="translate(9.7517326,10.424738)" />
    <polygon
       class="st5"
       points="259.9,135.6 234,150.6 208,135.6 234,120.6 "
       id="polygon4911-8"
       style="fill:#d1e5c0;stroke:#030305;stroke-linecap:round;stroke-linejoin:round"
       transform="translate(9.7517326,10.424738)" />
    <polygon
       class="st5"
       points="208.4,135.5 182.4,150.5 156.5,135.5 182.4,120.5 "
       id="polygon4913-7"
       style="fill:#d1e5c0;stroke:#030305;stroke-linecap:round;stroke-linejoin:round"
       transform="translate(9.7517326,10.424738)" />
    <polygon
       class="st3"
       points="208.4,15.5 182.4,30.5 156.5,15.5 182.4,0.5 "
       id="polygon4915-3"
       style="fill:#9fc8ec;stroke:#030305;stroke-linecap:round;stroke-linejoin:round"
       transform="translate(9.7517326,10.424738)" />
    <polygon
       class="st3"
       points="182.4,30.4 156.4,45.4 130.4,30.4 156.4,15.4 "
       id="polygon4917-1"
       style="fill:#9fc8ec;stroke:#030305;stroke-linecap:round;stroke-linejoin:round"
       transform="translate(9.7517326,10.424738)" />
    <polygon
       class="st14"
       points="260.6,45.7 234.5,60.8 208.5,45.7 234.5,30.7 "
       id="polygon4919-9"
       style="fill:#f6f0ab;stroke:#030305;stroke-linecap:round;stroke-linejoin:round"
       transform="translate(9.7517326,10.424738)" />
    <polygon
       class="st14"
       points="234.5,60.8 208.5,75.8 182.4,60.8 208.5,45.7 "
       id="polygon4921-3"
       style="fill:#f6f0ab;stroke:#030305;stroke-linecap:round;stroke-linejoin:round"
       transform="translate(9.7517326,10.424738)" />
    <polygon
       class="st14"
       points="208.4,75.5 182.4,90.5 156.5,75.5 182.4,60.5 "
       id="polygon4923-8"
       style="fill:#f6f0ab;stroke:#030305;stroke-linecap:round;stroke-linejoin:round"
       transform="translate(9.7517326,10.424738)" />
    <polygon
       class="st14"
       points="234.5,30.7 208.5,45.7 182.4,30.7 208.5,15.6 "
       id="polygon4925-5"
       style="fill:#f6f0ab;stroke:#030305;stroke-linecap:round;stroke-linejoin:round"
       transform="translate(9.7517326,10.424738)" />
    <polygon
       class="st14"
       points="130.4,120.3 104.4,135.3 78.4,120.3 104.4,105.3 "
       id="polygon4927-6"
       style="fill:#f6f0ab;stroke:#030305;stroke-linecap:round;stroke-linejoin:round"
       transform="translate(9.7517326,10.424738)" />
    <polygon
       class="st14"
       points="104.4,105.1 78.4,120.1 52.5,105.1 78.4,90.1 "
       id="polygon4929-7"
       style="fill:#f6f0ab;stroke:#030305;stroke-linecap:round;stroke-linejoin:round"
       transform="translate(9.7517326,10.424738)" />
    <polygon
       class="st14"
       points="182.4,150.4 156.4,165.4 130.4,150.4 156.4,135.4 "
       id="polygon4931-4"
       style="fill:#f6f0ab;stroke:#030305;stroke-linecap:round;stroke-linejoin:round"
       transform="translate(9.7517326,10.424738)" />
    <polygon
       class="st14"
       points="156.4,165.3 130.4,180.3 104.4,165.3 130.4,150.3 "
       id="polygon4933-5"
       style="fill:#f6f0ab;stroke:#030305;stroke-linecap:round;stroke-linejoin:round"
       transform="translate(9.7517326,10.424738)" />
    <polygon
       class="st14"
       points="104.4,135.1 78.4,150.1 52.5,135.1 78.4,120.1 "
       id="polygon4935-6"
       style="fill:#f6f0ab;stroke:#030305;stroke-linecap:round;stroke-linejoin:round"
       transform="translate(9.7517326,10.424738)" />
    <polygon
       class="st8"
       points="156.4,105.3 130.4,120.3 104.4,105.3 130.4,90.3 "
       id="polygon4937-9"
       style="fill:#dee1e3;stroke:#030305;stroke-linecap:round;stroke-linejoin:round"
       transform="translate(9.7517326,10.424738)" />
    <polygon
       class="st8"
       points="182.4,120.4 156.4,135.4 130.4,120.4 156.4,105.4 "
       id="polygon4939-5"
       style="fill:#dee1e3;stroke:#030305;stroke-linecap:round;stroke-linejoin:round"
       transform="translate(9.7517326,10.424738)" />
    <polygon
       class="st8"
       points="156.4,135.3 130.4,150.3 104.4,135.3 130.4,120.3 "
       id="polygon4941-7"
       style="fill:#dee1e3;stroke:#030305;stroke-linecap:round;stroke-linejoin:round"
       transform="translate(9.7517326,10.424738)" />
    <polygon
       class="st8"
       points="130.4,150.3 104.4,165.3 78.4,150.3 104.4,135.3 "
       id="polygon4943-6"
       style="fill:#dee1e3;stroke:#030305;stroke-linecap:round;stroke-linejoin:round"
       transform="translate(9.7517326,10.424738)" />
    <polygon
       class="st8"
       points="104.4,165.1 78.4,180.1 52.5,165.1 78.4,150.1 "
       id="polygon4945-9"
       style="fill:#dee1e3;stroke:#030305;stroke-linecap:round;stroke-linejoin:round"
       transform="translate(9.7517326,10.424738)" />
    <polygon
       class="st14"
       points="78.4,150.5 52.5,165.5 26.5,150.5 52.5,135.5 "
       id="polygon4947-2"
       style="fill:#f6f0ab;stroke:#030305;stroke-linecap:round;stroke-linejoin:round"
       transform="translate(9.7517326,10.424738)" />
    <polygon
       class="st3"
       points="208.4,45.5 182.4,60.5 156.5,45.5 182.4,30.5 "
       id="polygon4949-4"
       style="fill:#9fc8ec;stroke:#030305;stroke-linecap:round;stroke-linejoin:round"
       transform="translate(9.7517326,10.424738)" />
    <polygon
       class="st3"
       points="182.4,90.4 156.4,105.4 130.4,90.4 156.4,75.4 "
       id="polygon4951-4"
       style="fill:#9fc8ec;stroke:#030305;stroke-linecap:round;stroke-linejoin:round"
       transform="translate(9.7517326,10.424738)" />
    <polygon
       class="st8"
       points="208.4,105.5 182.4,120.5 156.5,105.5 182.4,90.5 "
       id="polygon4953-4"
       style="fill:#dee1e3;stroke:#030305;stroke-linecap:round;stroke-linejoin:round"
       transform="translate(9.7517326,10.424738)" />
    <polygon
       class="st3"
       points="182.4,60.4 156.4,75.4 130.4,60.4 156.4,45.4 "
       id="polygon4955-1"
       style="fill:#9fc8ec;stroke:#030305;stroke-linecap:round;stroke-linejoin:round"
       transform="translate(9.7517326,10.424738)" />
    <polygon
       class="st3"
       points="260.6,75.9 234.6,90.9 208.7,75.9 234.6,60.9 "
       id="polygon4957-9"
       style="fill:#9fc8ec;stroke:#030305;stroke-linecap:round;stroke-linejoin:round"
       transform="translate(9.7517326,10.424738)" />
    <polygon
       class="st3"
       points="234.6,90.9 208.7,105.9 182.7,90.9 208.7,75.9 "
       id="polygon4959-3"
       style="fill:#9fc8ec;stroke:#030305;stroke-linecap:round;stroke-linejoin:round"
       transform="translate(9.7517326,10.424738)" />
    <polygon
       class="st3"
       points="208.4,165.5 182.4,180.5 156.5,165.5 182.4,150.5 "
       id="polygon4961-6"
       style="fill:#9fc8ec;stroke:#030305;stroke-linecap:round;stroke-linejoin:round"
       transform="translate(9.7517326,10.424738)" />
    <polygon
       class="st3"
       points="234,150.6 208.1,165.6 182.1,150.6 208.1,135.6 "
       id="polygon4963-5"
       style="fill:#9fc8ec;stroke:#030305;stroke-linecap:round;stroke-linejoin:round"
       transform="translate(9.7517326,10.424738)" />
    <polygon
       class="st11"
       points="259.9,165.6 234,180.6 208,165.6 234,150.6 "
       id="polygon4965-5"
       style="fill:#6c96c8;stroke:#030305;stroke-linecap:round;stroke-linejoin:round"
       transform="translate(9.7517326,10.424738)" />
    <polygon
       class="st0"
       points="26.5,180.3 52.5,195.3 52.5,225.3 26.5,210.3 "
       id="polygon4967-6"
       style="fill:#86afde;stroke:#030305;stroke-linecap:round;stroke-linejoin:round"
       transform="translate(9.7517326,10.424738)" />
    <polygon
       class="st15"
       points="78.4,180.3 78.4,210.3 52.5,225.3 52.5,195.3 "
       id="polygon4969-2"
       style="fill:#e7f5fd;stroke:#030305;stroke-linecap:round;stroke-linejoin:round"
       transform="translate(9.7517326,10.424738)" />
    <polygon
       class="st3"
       points="78.4,180.3 52.5,195.3 26.5,180.3 52.5,165.3 "
       id="polygon4971-8"
       style="fill:#9fc8ec;stroke:#030305;stroke-linecap:round;stroke-linejoin:round"
       transform="translate(9.7517326,10.424738)" />
    <polygon
       class="st16"
       points="52.5,195.1 78.4,210.1 78.4,240.1 52.5,225.1 "
       id="polygon4973-2"
       style="fill:#f3faff;stroke:#030305;stroke-linecap:round;stroke-linejoin:round"
       transform="translate(9.7517326,10.424738)" />
    <polygon
       class="st11"
       points="104.4,195.1 104.4,225.1 78.4,240.1 78.4,210.1 "
       id="polygon4975-4"
       style="fill:#6c96c8;stroke:#030305;stroke-linecap:round;stroke-linejoin:round"
       transform="translate(9.7517326,10.424738)" />
    <polygon
       class="st3"
       points="104.4,195.1 78.4,210.1 52.5,195.1 78.4,180.1 "
       id="polygon4977-4"
       style="fill:#9fc8ec;stroke:#030305;stroke-linecap:round;stroke-linejoin:round"
       transform="translate(9.7517326,10.424738)" />
    <polygon
       class="st0"
       points="26.5,210.3 52.5,225.3 52.5,255.3 26.5,240.3 "
       id="polygon4979-2"
       style="fill:#86afde;stroke:#030305;stroke-linecap:round;stroke-linejoin:round"
       transform="translate(9.7517326,10.424738)" />
    <polygon
       class="st11"
       points="78.4,210.3 78.4,240.3 52.5,255.3 52.5,225.3 "
       id="polygon4981-2"
       style="fill:#6c96c8;stroke:#030305;stroke-linecap:round;stroke-linejoin:round"
       transform="translate(9.7517326,10.424738)" />
    <polygon
       class="st3"
       points="78.4,210.3 52.5,225.3 26.5,210.3 52.5,195.3 "
       id="polygon4983-5"
       style="fill:#9fc8ec;stroke:#030305;stroke-linecap:round;stroke-linejoin:round"
       transform="translate(9.7517326,10.424738)" />
    <polygon
       class="st11"
       points="260.4,75.8 260.4,105.8 234.4,120.8 234.4,90.8 "
       id="polygon4985-9"
       style="fill:#6c96c8;stroke:#030305;stroke-linecap:round;stroke-linejoin:round"
       transform="translate(9.7517326,10.424738)" />
    <polygon
       class="st11"
       points="234.4,91 234.4,121 208.5,136 208.5,106 "
       id="polygon4987-9"
       style="fill:#6c96c8;stroke:#030305;stroke-linecap:round;stroke-linejoin:round"
       transform="translate(9.7517326,10.424738)" />
    <polygon
       class="st9"
       points="259.7,136 259.7,166 233.7,181 233.7,151 "
       id="polygon4989-4"
       style="fill:#a0be90;stroke:#030305;stroke-linecap:round;stroke-linejoin:round"
       transform="translate(9.7517326,10.424738)" />
    <polygon
       class="st3"
       points="78.4,90.1 52.5,105.1 26.5,90.1 52.5,75.1 "
       id="polygon4991-4"
       style="fill:#9fc8ec;stroke:#030305;stroke-linecap:round;stroke-linejoin:round"
       transform="translate(9.7517326,10.424738)" />
    <polygon
       class="st5"
       points="234.6,120.5 208.6,135.5 182.7,120.5 208.6,105.5 "
       id="polygon4993-6"
       style="fill:#d1e5c0;stroke:#030305;stroke-linecap:round;stroke-linejoin:round"
       transform="translate(9.7517326,10.424738)" />
  </g>
</svg>
