<?xml version="1.0" encoding="UTF-8" standalone="no"?>
<!-- Created with Inkscape (http://www.inkscape.org/) -->

<svg
   xmlns:dc="http://purl.org/dc/elements/1.1/"
   xmlns:cc="http://creativecommons.org/ns#"
   xmlns:rdf="http://www.w3.org/1999/02/22-rdf-syntax-ns#"
   xmlns:svg="http://www.w3.org/2000/svg"
   xmlns="http://www.w3.org/2000/svg"
   xmlns:sodipodi="http://sodipodi.sourceforge.net/DTD/sodipodi-0.dtd"
   xmlns:inkscape="http://www.inkscape.org/namespaces/inkscape"
   width="80mm"
   height="80mm"
   id="svg3596"
   version="1.1"
   inkscape:version="0.48.4 r9939"
   sodipodi:docname="New document 2">
  <defs
     id="defs3598" />
  <sodipodi:namedview
     inkscape:document-units="mm"
     pagecolor="#ffffff"
     bordercolor="#666666"
     borderopacity="1.0"
     inkscape:pageopacity="0.0"
     inkscape:pageshadow="2"
     inkscape:zoom="0.43415836"
     inkscape:cx="490"
     inkscape:cy="380"
     inkscape:current-layer="layer1"
     id="namedview3600"
     showgrid="false"
     inkscape:window-width="1280"
     inkscape:window-height="657"
     inkscape:window-x="-8"
     inkscape:window-y="-8"
     inkscape:window-maximized="1" />
  <metadata
     id="metadata3602">
    <rdf:RDF>
      <cc:Work
         rdf:about="">
        <dc:format>image/svg+xml</dc:format>
        <dc:type
           rdf:resource="http://purl.org/dc/dcmitype/StillImage" />
        <dc:title></dc:title>
      </cc:Work>
    </rdf:RDF>
  </metadata>
  <g
     inkscape:label="Layer 1"
     inkscape:groupmode="layer"
     id="layer1">
    <polygon
       class="st0"
       points="182,30.5 182,60.5 156,45.5 156,15.5 "
       id="polygon3452-9"
       style="fill:#e1da93;stroke:#101217;stroke-linecap:round;stroke-linejoin:round"
       transform="translate(14.321569,10.324736)" />
    <polygon
       class="st1"
       points="208,45.5 182,60.5 182,30.5 208,15.5 "
       id="polygon3454-1"
       style="fill:#f7f1ab;stroke:#101217;stroke-linecap:round;stroke-linejoin:round"
       transform="translate(14.321569,10.324736)" />
    <polygon
       class="st1"
       points="182.6,31.2 156,15.8 182.6,0.5 209.1,15.8 "
       id="polygon3456-9"
       style="fill:#f7f1ab;stroke:#101217;stroke-linecap:round;stroke-linejoin:round"
       transform="translate(14.321569,10.324736)" />
    <polygon
       class="st0"
       points="207.5,45.5 207.5,75.5 181.5,60.5 181.5,30.5 "
       id="polygon3458-7"
       style="fill:#e1da93;stroke:#101217;stroke-linecap:round;stroke-linejoin:round"
       transform="translate(14.321569,10.324736)" />
    <polygon
       class="st1"
       points="234.4,60.5 208.5,75.5 208.5,45.5 234.4,30.5 "
       id="polygon3460-5"
       style="fill:#f7f1ab;stroke:#101217;stroke-linecap:round;stroke-linejoin:round"
       transform="translate(14.321569,10.324736)" />
    <polygon
       class="st1"
       points="208.6,46.5 182.1,31.2 208.6,15.8 235.1,31.2 "
       id="polygon3462-8"
       style="fill:#f7f1ab;stroke:#101217;stroke-linecap:round;stroke-linejoin:round"
       transform="translate(14.321569,10.324736)" />
    <polygon
       class="st1"
       points="234.4,60.5 234.4,90.5 208.5,75.5 208.5,45.5 "
       id="polygon3464-7"
       style="fill:#f7f1ab;stroke:#101217;stroke-linecap:round;stroke-linejoin:round"
       transform="translate(14.321569,10.324736)" />
    <polygon
       class="st2"
       points="260.4,75.5 234.4,90.5 234.4,60.5 260.4,45.5 "
       id="polygon3466-8"
       style="fill:#d0c77b;stroke:#101217;stroke-linecap:round;stroke-linejoin:round"
       transform="translate(14.321569,10.324736)" />
    <polygon
       class="st1"
       points="234.4,60.5 208.5,45.5 234.4,30.5 260.4,45.5 "
       id="polygon3468-3"
       style="fill:#f7f1ab;stroke:#101217;stroke-linecap:round;stroke-linejoin:round"
       transform="translate(14.321569,10.324736)" />
    <polygon
       class="st0"
       points="208.5,75.5 208.5,105.5 182.5,90.5 182.5,60.5 "
       id="polygon3470-7"
       style="fill:#e1da93;stroke:#101217;stroke-linecap:round;stroke-linejoin:round"
       transform="translate(14.321569,10.324736)" />
    <polygon
       class="st2"
       points="234.4,90.5 208.5,105.5 208.5,75.5 234.4,60.5 "
       id="polygon3472-9"
       style="fill:#d0c77b;stroke:#101217;stroke-linecap:round;stroke-linejoin:round"
       transform="translate(14.321569,10.324736)" />
    <polygon
       class="st1"
       points="208.5,75.5 182.5,60.5 208.5,45.5 234.4,60.5 "
       id="polygon3474-3"
       style="fill:#f7f1ab;stroke:#101217;stroke-linecap:round;stroke-linejoin:round"
       transform="translate(14.321569,10.324736)" />
    <polygon
       class="st3"
       points="126.4,90.5 126.4,120.5 100.5,105.5 100.5,75.5 "
       id="polygon3476-9"
       style="fill:#ffffff;stroke:#101217;stroke-linecap:round;stroke-linejoin:round"
       transform="translate(14.321569,10.324736)" />
    <polygon
       class="st4"
       points="152.4,105.5 126.4,120.5 126.4,90.5 152.4,75.5 "
       id="polygon3478-7"
       style="fill:#6d97ca;stroke:#101217;stroke-linecap:round;stroke-linejoin:round"
       transform="translate(14.321569,10.324736)" />
    <polygon
       class="st5"
       points="126.4,90.5 100.5,75.5 126.4,60.5 152.4,75.5 "
       id="polygon3480-4"
       style="fill:#9fc8ec;stroke:#101217;stroke-linecap:round;stroke-linejoin:round"
       transform="translate(14.321569,10.324736)" />
    <polygon
       class="st6"
       points="74.5,90.5 74.5,120.5 48.5,105.5 48.5,75.5 "
       id="polygon3482-3"
       style="fill:#86afde;stroke:#101217;stroke-linecap:round;stroke-linejoin:round"
       transform="translate(14.321569,10.324736)" />
    <polygon
       class="st3"
       points="100.5,105.5 74.5,120.5 74.5,90.5 100.5,75.5 "
       id="polygon3484-1"
       style="fill:#ffffff;stroke:#101217;stroke-linecap:round;stroke-linejoin:round"
       transform="translate(14.321569,10.324736)" />
    <polygon
       class="st5"
       points="74.5,90.5 48.5,75.5 74.5,60.5 100.5,75.5 "
       id="polygon3486-1"
       style="fill:#9fc8ec;stroke:#101217;stroke-linecap:round;stroke-linejoin:round"
       transform="translate(14.321569,10.324736)" />
    <polygon
       class="st6"
       points="100.5,105.5 100.5,135.5 74.5,120.5 74.5,90.5 "
       id="polygon3488-8"
       style="fill:#86afde;stroke:#101217;stroke-linecap:round;stroke-linejoin:round"
       transform="translate(14.321569,10.324736)" />
    <polygon
       class="st3"
       points="126.4,120.5 100.5,135.5 100.5,105.5 126.4,90.5 "
       id="polygon3490-4"
       style="fill:#ffffff;stroke:#101217;stroke-linecap:round;stroke-linejoin:round"
       transform="translate(14.321569,10.324736)" />
    <polygon
       class="st5"
       points="100.5,105.5 74.5,90.5 100.5,75.5 126.4,90.5 "
       id="polygon3492-5"
       style="fill:#9fc8ec;stroke:#101217;stroke-linecap:round;stroke-linejoin:round"
       transform="translate(14.321569,10.324736)" />
    <polygon
       class="st6"
       points="126.4,120.5 126.4,150.5 100.5,135.5 100.5,105.5 "
       id="polygon3494-8"
       style="fill:#86afde;stroke:#101217;stroke-linecap:round;stroke-linejoin:round"
       transform="translate(14.321569,10.324736)" />
    <polygon
       class="st4"
       points="152.4,135.5 126.4,150.5 126.4,120.5 152.4,105.5 "
       id="polygon3496-0"
       style="fill:#6d97ca;stroke:#101217;stroke-linecap:round;stroke-linejoin:round"
       transform="translate(14.321569,10.324736)" />
    <polygon
       class="st5"
       points="126.4,120.5 100.5,105.5 126.4,90.5 152.4,105.5 "
       id="polygon3498-3"
       style="fill:#9fc8ec;stroke:#101217;stroke-linecap:round;stroke-linejoin:round"
       transform="translate(14.321569,10.324736)" />
    <polygon
       class="st7"
       points="227.5,110.8 227.5,140.8 201.6,125.8 201.6,95.8 "
       id="polygon3500-3"
       style="fill:#b9d9ac;stroke:#101217;stroke-linecap:round;stroke-linejoin:round"
       transform="translate(14.321569,10.324736)" />
    <polygon
       class="st8"
       points="253.5,125.8 227.5,140.8 227.5,110.8 253.5,95.8 "
       id="polygon3502-9"
       style="fill:#fdeaee;stroke:#101217;stroke-linecap:round;stroke-linejoin:round"
       transform="translate(14.321569,10.324736)" />
    <polygon
       class="st9"
       points="227.5,110.8 201.6,95.8 227.5,80.8 253.5,95.8 "
       id="polygon3504-4"
       style="fill:#d1e5c0;stroke:#101217;stroke-linecap:round;stroke-linejoin:round"
       transform="translate(14.321569,10.324736)" />
    <polygon
       class="st7"
       points="253.5,125.8 253.5,155.8 227.5,140.8 227.5,110.8 "
       id="polygon3506-1"
       style="fill:#b9d9ac;stroke:#101217;stroke-linecap:round;stroke-linejoin:round"
       transform="translate(14.321569,10.324736)" />
    <polygon
       class="st10"
       points="279.5,140.8 253.5,155.8 253.5,125.8 279.5,110.8 "
       id="polygon3508-6"
       style="fill:#a3c293;stroke:#101217;stroke-linecap:round;stroke-linejoin:round"
       transform="translate(14.321569,10.324736)" />
    <polygon
       class="st9"
       points="253.5,125.8 227.5,110.8 253.5,95.8 279.5,110.8 "
       id="polygon3510-5"
       style="fill:#d1e5c0;stroke:#101217;stroke-linecap:round;stroke-linejoin:round"
       transform="translate(14.321569,10.324736)" />
    <polygon
       class="st11"
       points="181.5,133.3 181.5,163.3 155.5,148.3 155.5,118.3 "
       id="polygon3512-1"
       style="fill:#cccfd1;stroke:#101217;stroke-linecap:round;stroke-linejoin:round"
       transform="translate(14.321569,10.324736)" />
    <polygon
       class="st12"
       points="207.5,148.3 181.5,163.3 181.5,133.3 207.5,118.3 "
       id="polygon3514-3"
       style="fill:#b8babc;stroke:#101217;stroke-linecap:round;stroke-linejoin:round"
       transform="translate(14.321569,10.324736)" />
    <polygon
       class="st13"
       points="181.5,133.3 155.5,118.3 181.5,103.3 207.5,118.3 "
       id="polygon3516-7"
       style="fill:#e0e4e6;stroke:#101217;stroke-linecap:round;stroke-linejoin:round"
       transform="translate(14.321569,10.324736)" />
    <polygon
       class="st14"
       points="249.5,160.6 249.5,190.6 223.5,175.6 223.5,145.6 "
       id="polygon3518-0"
       style="fill:#f3faff;stroke:#101217;stroke-linecap:round;stroke-linejoin:round"
       transform="translate(14.321569,10.324736)" />
    <polygon
       class="st4"
       points="275.4,175.6 249.5,190.6 249.5,160.6 275.4,145.6 "
       id="polygon3520-8"
       style="fill:#6d97ca;stroke:#101217;stroke-linecap:round;stroke-linejoin:round"
       transform="translate(14.321569,10.324736)" />
    <polygon
       class="st5"
       points="249.5,160.6 223.5,145.6 249.5,130.6 275.4,145.6 "
       id="polygon3522-5"
       style="fill:#9fc8ec;stroke:#101217;stroke-linecap:round;stroke-linejoin:round"
       transform="translate(14.321569,10.324736)" />
    <polygon
       class="st6"
       points="223.5,175.6 223.5,205.6 197.5,190.6 197.5,160.6 "
       id="polygon3524-5"
       style="fill:#86afde;stroke:#101217;stroke-linecap:round;stroke-linejoin:round"
       transform="translate(14.321569,10.324736)" />
    <polygon
       class="st15"
       points="249.5,190.6 223.5,205.6 223.5,175.6 249.5,160.6 "
       id="polygon3526-1"
       style="fill:#e7f5fd;stroke:#101217;stroke-linecap:round;stroke-linejoin:round"
       transform="translate(14.321569,10.324736)" />
    <polygon
       class="st5"
       points="223.5,175.6 197.5,160.6 223.5,145.6 249.5,160.6 "
       id="polygon3528-5"
       style="fill:#9fc8ec;stroke:#101217;stroke-linecap:round;stroke-linejoin:round"
       transform="translate(14.321569,10.324736)" />
    <polygon
       class="st6"
       points="249.1,190.3 249.1,220.3 223.1,205.3 223.1,175.3 "
       id="polygon3530-1"
       style="fill:#86afde;stroke:#101217;stroke-linecap:round;stroke-linejoin:round"
       transform="translate(14.321569,10.324736)" />
    <polygon
       class="st4"
       points="275.1,205.3 249.1,220.3 249.1,190.3 275.1,175.3 "
       id="polygon3532-4"
       style="fill:#6d97ca;stroke:#101217;stroke-linecap:round;stroke-linejoin:round"
       transform="translate(14.321569,10.324736)" />
    <polygon
       class="st5"
       points="249.4,190.3 223.6,175.5 249.4,160.6 275.1,175.5 "
       id="polygon3534-9"
       style="fill:#9fc8ec;stroke:#101217;stroke-linecap:round;stroke-linejoin:round"
       transform="translate(14.321569,10.324736)" />
    <polygon
       class="st0"
       points="39.5,149 39.5,179 13.5,164 13.5,134 "
       id="polygon3536-2"
       style="fill:#e1da93;stroke:#101217;stroke-linecap:round;stroke-linejoin:round"
       transform="translate(14.321569,10.324736)" />
    <polygon
       class="st2"
       points="65.5,164 39.5,179 39.5,149 65.5,134 "
       id="polygon3538-1"
       style="fill:#d0c77b;stroke:#101217;stroke-linecap:round;stroke-linejoin:round"
       transform="translate(14.321569,10.324736)" />
    <polygon
       class="st1"
       points="39.5,149 13.5,134 39.5,119 65.5,134 "
       id="polygon3540-5"
       style="fill:#f7f1ab;stroke:#101217;stroke-linecap:round;stroke-linejoin:round"
       transform="translate(14.321569,10.324736)" />
    <polygon
       class="st3"
       points="78.4,195.5 78.4,225.5 52.5,210.5 52.5,180.5 "
       id="polygon3542-0"
       style="fill:#ffffff;stroke:#101217;stroke-linecap:round;stroke-linejoin:round"
       transform="translate(14.321569,10.324736)" />
    <polygon
       class="st12"
       points="104.4,210.5 78.4,225.5 78.4,195.5 104.4,180.5 "
       id="polygon3544-8"
       style="fill:#b8babc;stroke:#101217;stroke-linecap:round;stroke-linejoin:round"
       transform="translate(14.321569,10.324736)" />
    <polygon
       class="st11"
       points="26.5,195.5 26.5,225.5 0.5,210.5 0.5,180.5 "
       id="polygon3546-0"
       style="fill:#cccfd1;stroke:#101217;stroke-linecap:round;stroke-linejoin:round"
       transform="translate(14.321569,10.324736)" />
    <polygon
       class="st3"
       points="52.5,210.5 26.5,225.5 26.5,195.5 52.5,180.5 "
       id="polygon3548-0"
       style="fill:#ffffff;stroke:#101217;stroke-linecap:round;stroke-linejoin:round"
       transform="translate(14.321569,10.324736)" />
    <polygon
       class="st13"
       points="26.5,195.5 0.5,180.5 26.5,165.5 52.5,180.5 "
       id="polygon3550-9"
       style="fill:#e0e4e6;stroke:#101217;stroke-linecap:round;stroke-linejoin:round"
       transform="translate(14.321569,10.324736)" />
    <polygon
       class="st11"
       points="52.5,210.5 52.5,240.5 26.5,225.5 26.5,195.5 "
       id="polygon3552-7"
       style="fill:#cccfd1;stroke:#101217;stroke-linecap:round;stroke-linejoin:round"
       transform="translate(14.321569,10.324736)" />
    <polygon
       class="st3"
       points="78.4,225.5 52.5,240.5 52.5,210.5 78.4,195.5 "
       id="polygon3554-8"
       style="fill:#ffffff;stroke:#101217;stroke-linecap:round;stroke-linejoin:round"
       transform="translate(14.321569,10.324736)" />
    <polygon
       class="st13"
       points="52.5,210.5 26.5,195.5 52.5,180.5 78.4,195.5 "
       id="polygon3556-2"
       style="fill:#e0e4e6;stroke:#101217;stroke-linecap:round;stroke-linejoin:round"
       transform="translate(14.321569,10.324736)" />
    <polygon
       class="st11"
       points="78.4,225.5 78.4,255.5 52.5,240.5 52.5,210.5 "
       id="polygon3558-8"
       style="fill:#cccfd1;stroke:#101217;stroke-linecap:round;stroke-linejoin:round"
       transform="translate(14.321569,10.324736)" />
    <polygon
       class="st12"
       points="104.4,240.5 78.4,255.5 78.4,225.5 104.4,210.5 "
       id="polygon3560-3"
       style="fill:#b8babc;stroke:#101217;stroke-linecap:round;stroke-linejoin:round"
       transform="translate(14.321569,10.324736)" />
    <polygon
       class="st7"
       points="149.5,180.5 149.5,210.5 123.5,195.5 123.5,165.5 "
       id="polygon3562-5"
       style="fill:#b9d9ac;stroke:#101217;stroke-linecap:round;stroke-linejoin:round"
       transform="translate(14.321569,10.324736)" />
    <polygon
       class="st8"
       points="175.5,195.5 149.5,210.5 149.5,180.5 175.5,165.5 "
       id="polygon3564-4"
       style="fill:#fdeaee;stroke:#101217;stroke-linecap:round;stroke-linejoin:round"
       transform="translate(14.321569,10.324736)" />
    <polygon
       class="st9"
       points="149.5,180.5 123.5,165.5 149.5,150.5 175.5,165.5 "
       id="polygon3566-9"
       style="fill:#d1e5c0;stroke:#101217;stroke-linecap:round;stroke-linejoin:round"
       transform="translate(14.321569,10.324736)" />
    <polygon
       class="st7"
       points="175.5,195.5 175.5,225.5 149.5,210.5 149.5,180.5 "
       id="polygon3568-0"
       style="fill:#b9d9ac;stroke:#101217;stroke-linecap:round;stroke-linejoin:round"
       transform="translate(14.321569,10.324736)" />
    <polygon
       class="st8"
       points="201.4,210.5 175.5,225.5 175.5,195.5 201.4,180.5 "
       id="polygon3570-8"
       style="fill:#fdeaee;stroke:#101217;stroke-linecap:round;stroke-linejoin:round"
       transform="translate(14.321569,10.324736)" />
    <polygon
       class="st9"
       points="175.5,195.5 149.5,180.5 175.5,165.5 201.4,180.5 "
       id="polygon3572-5"
       style="fill:#d1e5c0;stroke:#101217;stroke-linecap:round;stroke-linejoin:round"
       transform="translate(14.321569,10.324736)" />
    <polygon
       class="st7"
       points="201.4,210.5 201.4,240.5 175.5,225.5 175.5,195.5 "
       id="polygon3574-2"
       style="fill:#b9d9ac;stroke:#101217;stroke-linecap:round;stroke-linejoin:round"
       transform="translate(14.321569,10.324736)" />
    <polygon
       class="st8"
       points="227.4,225.5 201.4,240.5 201.4,210.5 227.4,195.5 "
       id="polygon3576-1"
       style="fill:#fdeaee;stroke:#101217;stroke-linecap:round;stroke-linejoin:round"
       transform="translate(14.321569,10.324736)" />
    <polygon
       class="st9"
       points="201.4,210.5 175.5,195.5 201.4,180.5 227.4,195.5 "
       id="polygon3578-1"
       style="fill:#d1e5c0;stroke:#101217;stroke-linecap:round;stroke-linejoin:round"
       transform="translate(14.321569,10.324736)" />
    <polygon
       class="st7"
       points="227.4,225.5 227.4,255.5 201.4,240.5 201.4,210.5 "
       id="polygon3580-9"
       style="fill:#b9d9ac;stroke:#101217;stroke-linecap:round;stroke-linejoin:round"
       transform="translate(14.321569,10.324736)" />
    <polygon
       class="st10"
       points="253.4,240.5 227.4,255.5 227.4,225.5 253.4,210.5 "
       id="polygon3582-4"
       style="fill:#a3c293;stroke:#101217;stroke-linecap:round;stroke-linejoin:round"
       transform="translate(14.321569,10.324736)" />
    <polygon
       class="st9"
       points="227.4,225.5 201.4,210.5 227.4,195.5 253.4,210.5 "
       id="polygon3584-7"
       style="fill:#d1e5c0;stroke:#101217;stroke-linecap:round;stroke-linejoin:round"
       transform="translate(14.321569,10.324736)" />
    <polygon
       class="st13"
       points="78.4,225.5 52.4,210.5 78.4,195.5 104.4,210.5 "
       id="polygon3586-4"
       style="fill:#e0e4e6;stroke:#101217;stroke-linecap:round;stroke-linejoin:round"
       transform="translate(14.321569,10.324736)" />
    <polygon
       class="st13"
       points="78.4,195.5 52.4,180.5 78.4,165.5 104.4,180.5 "
       id="polygon3588-8"
       style="fill:#e0e4e6;stroke:#101217;stroke-linecap:round;stroke-linejoin:round"
       transform="translate(14.321569,10.324736)" />
  </g>
</svg>
